<?xml version="1.0" encoding="UTF-8" standalone="no"?>
<svg
        xmlns:dc="http://purl.org/dc/elements/1.1/"
        xmlns:cc="http://creativecommons.org/ns#"
        xmlns:rdf="http://www.w3.org/1999/02/22-rdf-syntax-ns#"
        xmlns:svg="http://www.w3.org/2000/svg"
        xmlns="http://www.w3.org/2000/svg"
        xmlns:sodipodi="http://sodipodi.sourceforge.net/DTD/sodipodi-0.dtd"
        xmlns:inkscape="http://www.inkscape.org/namespaces/inkscape"
        version="1.1"
        id="svg2"
        xml:space="preserve"
        width="4266.6665"
        height="2666.6667"
        viewBox="0 0 4266.6665 2666.6667">
    <defs
            id="defs6"/>
    <g
            id="g10"
            inkscape:groupmode="layer"
            inkscape:label="ink_ext_XXXXXX"
            transform="matrix(1.3333333,0,0,-1.3333333,0,2666.6667)"><g
       id="g12"
       transform="scale(0.1)"><path
         d="M 32000,0 H 0 V 20000 H 32000 V 0"
         style="fill:#ffffff;fill-opacity:1;fill-rule:nonzero;stroke:none"
         id="path14" /><path
            d="m 4177.26,2007.3 c 0,0 -3363.256,4051.4 -1719.56,8222.2 1071.4,2718.7 5090.38,4208.4 7358.5,2718.7 966,-634.5 4065.3,-21.4 5720.1,2605.4 3215.7,5104.5 14438.6,2004.5 12395.4,-5832.7 -988.7,-3792.7 3009.2,-3930.5 972.1,-7721.6 l -24726.54,8"
            style="fill:#ebf3fa;fill-opacity:1;fill-rule:nonzero;stroke:none"
            id="path16"/><path
            d="m 6666.81,8675.1 c 0,0 -339.2,395.7 -20.92,647.1 0,0 232.49,140.7 422.06,129.3 0,0 -268.61,-450.4 -181.71,-495.2 86.89,-44.8 263.12,523.4 263.12,523.4 0,0 529.06,51.3 699.25,-30.5 0,0 -452.28,-370.1 -357.02,-392.1 95.25,-22.1 583.77,341.2 583.77,341.2 0,0 492.4,-83.8 466.15,-384.2 -26.26,-300.3 -195.92,-393.1 -270.49,-385.1 -74.58,8 -510.8,174.5 -520.3,113.4 -9.5,-61.1 253.08,-260.8 436.96,-270.1 0,0 -347.16,-382.9 -577.88,-272.4 -230.72,110.5 -250.42,285.6 -394.24,351.3 -143.82,65.7 -266.59,65.6 -207.22,-1.4 59.38,-67 319.68,-132.1 401.92,-277.6 82.25,-145.5 156.04,-243.6 -82.66,-207.7 -238.71,35.9 -626.73,210.6 -643.76,410.6 -17.03,200 -17.03,200 -17.03,200"
            style="fill:#c8dbf4;fill-opacity:1;fill-rule:nonzero;stroke:none"
            id="path18"/><path
            d="m 8299.57,9006 c 0,0 -1337.41,51.6 -1632.76,-330.9 0,0 -65.32,-195.6 -266.32,-373.8 l -31.32,-85.4 c 0,0 231.75,244.4 314.67,259.2 0,0 -129.68,473.8 1615.73,530.9"
            style="fill:#c8dbf4;fill-opacity:1;fill-rule:nonzero;stroke:none"
            id="path20"/><path
            d="m 6400.49,8301.3 c 0,0 -287.06,-212.3 -307,-591.6 l 52.1,-4.7 c 0,0 91.69,392.3 257.4,545.6 165.71,153.4 -2.5,50.7 -2.5,50.7"
            style="fill:#c8dbf4;fill-opacity:1;fill-rule:nonzero;stroke:none"
            id="path22"/><path
            d="m 5480.86,9172.8 c 0,0 539.57,302.1 287.77,712.2 0,0 -201.44,251.8 -417.27,316.5 0,0 115.11,-611.5 0,-625.9 -115.11,-14.4 -79.13,690.7 -79.13,690.7 0,0 -568.36,273.4 -791.38,251.8 0,0 352.52,-597.1 237.41,-582.7 -115.11,14.3 -510.79,618.7 -510.79,618.7 0,0 -582.75,107.9 -676.27,-237.5 -93.53,-345.3 57.55,-517.9 143.88,-539.5 86.34,-21.6 640.3,-14.4 625.91,-86.4 -14.39,-71.9 -388.49,-187 -597.13,-122.3 0,0 230.22,-568.3 532.38,-539.5 302.16,28.7 395.69,215.8 582.74,230.2 187.06,14.4 323.75,-36 230.22,-86.3 -93.53,-50.4 -410.07,-16.6 -561.16,-145 -151.08,-128.4 -273.38,-207.6 7.2,-265.1 280.58,-57.6 784.18,-21.6 884.9,194.2 100.72,215.9 100.72,215.9 100.72,215.9"
            style="fill:#c8dbf4;fill-opacity:1;fill-rule:nonzero;stroke:none"
            id="path24"/><path
            d="m 3797.39,10208.7 c 0,0 1510.81,-489.2 1683.47,-1035.9 0,0 -7.19,-244.7 143.89,-525.2 v -108 c 0,0 -158.28,367 -244.61,417.3 0,0 338.13,474.8 -1582.75,1251.8"
            style="fill:#c8dbf4;fill-opacity:1;fill-rule:nonzero;stroke:none"
            id="path26"/><path
            d="m 5624.75,8647.6 c 0,0 232.99,-353.9 100.16,-784.5 l -59.94,16.1 c 0,0 58.18,474.3 -63.72,712.9 -121.89,238.6 23.5,55.5 23.5,55.5"
            style="fill:#c8dbf4;fill-opacity:1;fill-rule:nonzero;stroke:none"
            id="path28"/><path
            d="m 6339.28,9589.5 c 0,0 -711.26,398.3 -379.34,938.8 0,0 265.54,332 550.05,417.3 0,0 -151.74,-806.1 0,-825 151.73,-19 104.31,910.4 104.31,910.4 0,0 749.2,360.3 1043.19,331.9 0,0 -464.7,-787.1 -312.96,-768.2 151.73,19 673.33,815.6 673.33,815.6 0,0 768.16,142.3 891.44,-313 123.29,-455.2 -75.86,-682.8 -189.67,-711.2 -113.8,-28.5 -844.02,-19 -825.06,-113.8 18.97,-94.9 512.11,-246.6 787.13,-161.2 0,0 -303.47,-749.2 -701.78,-711.3 -398.3,37.9 -521.59,284.5 -768.16,303.5 -246.57,18.9 -426.76,-47.4 -303.47,-113.8 123.29,-66.4 540.56,-21.8 739.71,-191.1 199.15,-169.3 360.37,-273.6 -9.48,-349.5 -369.86,-75.9 -1033.7,-28.4 -1166.47,256.1 -132.77,284.5 -132.77,284.5 -132.77,284.5"
            style="fill:#d4e4f8;fill-opacity:1;fill-rule:nonzero;stroke:none"
            id="path30"/><path
            d="m 8558.41,10955.1 c 0,0 -1991.53,-644.9 -2219.13,-1365.6 0,0 9.48,-322.5 -189.67,-692.3 v -142.3 c 0,0 208.64,483.7 322.44,550.1 0,0 -445.72,625.9 2086.36,1650.1"
            style="fill:#d4e4f8;fill-opacity:1;fill-rule:nonzero;stroke:none"
            id="path32"/><path
            d="m 6149.61,8897.2 c 0,0 -307.12,-466.4 -132.03,-1034.1 l 79.01,21.2 c 0,0 -76.7,625.3 83.99,939.8 160.68,314.5 -30.97,73.1 -30.97,73.1"
            style="fill:#d4e4f8;fill-opacity:1;fill-rule:nonzero;stroke:none"
            id="path34"/><path
            d="m 6315.32,6631.9 c 769.47,0 1393.24,623.8 1393.24,1393.3 H 4922.07 c 0,-769.5 623.78,-1393.3 1393.25,-1393.3"
            style="fill:#d4e4f8;fill-opacity:1;fill-rule:nonzero;stroke:none"
            id="path36"/><path
            d="M 7727.8,6561 H 4902.83 v 0 c 0,95 76.96,171.9 171.89,171.9 h 2481.19 c 94.93,0 171.89,-76.9 171.89,-171.9 v 0"
            style="fill:#d4e4f8;fill-opacity:1;fill-rule:nonzero;stroke:none"
            id="path38"/><path
            d="M 7740.24,7982.5 H 4876.26 v 42.7 h 2863.98 v -42.7"
            style="fill:#9fc1f4;fill-opacity:1;fill-rule:nonzero;stroke:none"
            id="path40"/><path
            d="m 13504.5,2036.3 6.9,0.1 c 56.3,1 99.8,47 94.5,100 l -375.6,3750.7 -327.7,-29.3 539.3,-3770.8 c 4.2,-29.5 31.1,-51.3 62.6,-50.7"
            style="fill:#8cb4f4;fill-opacity:1;fill-rule:nonzero;stroke:none"
            id="path42"/><path
            d="m 9888.25,2036.3 -6.88,0.1 c -56.3,1 -99.77,47 -94.48,100 l 375.61,3750.7 327.7,-29.3 L 9950.89,2087 c -4.21,-29.5 -31.15,-51.3 -62.64,-50.7"
            style="fill:#8cb4f4;fill-opacity:1;fill-rule:nonzero;stroke:none"
            id="path44"/><path
            d="m 16154,2036.3 6.9,0.1 c 56.3,1 99.8,47 94.5,100 l -375.6,3750.7 -327.7,-29.3 539.3,-3770.8 c 4.2,-29.5 31.1,-51.3 62.6,-50.7"
            style="fill:#8cb4f4;fill-opacity:1;fill-rule:nonzero;stroke:none"
            id="path46"/><path
            d="m 10000.1,6432.6 -666.64,3292.1 c -85.56,445.7 283.78,853.3 763.34,842.3 l 1285.7,-29.3 c 443.5,-10.2 829.1,-307 952.4,-733.2 l 975.3,-3371.9 h -3310.1"
            style="fill:#8cb4f4;fill-opacity:1;fill-rule:nonzero;stroke:none"
            id="path48"/><path
            d="m 10403.4,6432.6 -666.63,3292.1 c -85.57,445.7 283.73,853.3 763.33,842.3 l 1285.7,-29.3 c 443.5,-10.2 829.1,-307 952.4,-733.2 l 975.3,-3371.9 h -3310.1"
            style="fill:#8cb4f4;fill-opacity:1;fill-rule:nonzero;stroke:none"
            id="path50"/><path
            d="m 10185.9,5832.2 h 5086.6 c 102.2,0 185.8,83.6 185.8,185.8 v 228.8 c 0,102.2 -83.6,185.8 -185.8,185.8 H 10000.1 V 6018 c 0,-102.2 83.6,-185.8 185.8,-185.8"
            style="fill:#8cb4f4;fill-opacity:1;fill-rule:nonzero;stroke:none"
            id="path52"/><path
            d="m 12572.9,5832.2 h 3242.6 c 82.3,0 149.7,67.4 149.7,149.7 V 6283 c 0,82.3 -67.4,149.6 -149.7,149.6 h -3242.6 c -82.3,0 -149.7,-67.3 -149.7,-149.6 v -301.1 c 0,-82.3 67.4,-149.7 149.7,-149.7"
            style="fill:#8cb4f4;fill-opacity:1;fill-rule:nonzero;stroke:none"
            id="path54"/><path
            d="m 8482.38,6475.5 v -112.3 c 0,-39.3 -12.73,-71.4 -28.26,-71.4 H 4355.55 c -15.53,0 -28.26,32.1 -28.26,71.4 v 112.3 c 0,39.3 12.73,71.4 28.26,71.4 h 4098.57 c 15.53,0 28.26,-32.1 28.26,-71.4"
            style="fill:#9abfe2;fill-opacity:1;fill-rule:nonzero;stroke:none"
            id="path56"/><path
            d="m 8482.38,6475.5 v -112.3 c 0,-39.3 -11.68,-71.4 -25.94,-71.4 H 5202.63 c -14.26,0 -25.95,32.1 -25.95,71.4 v 112.3 c 0,39.3 11.69,71.4 25.95,71.4 h 3253.81 c 14.26,0 25.94,-32.1 25.94,-71.4"
            style="fill:#bad4f4;fill-opacity:1;fill-rule:nonzero;stroke:none"
            id="path58"/><path
            d="M 7445.04,2050.7 H 4535.31 v 4241 h 2909.73 v -4241"
            style="fill:#c8dbf4;fill-opacity:1;fill-rule:nonzero;stroke:none"
            id="path60"/><path
            d="M 8260.46,2050.7 H 5350.73 v 4241 h 2909.73 v -4241"
            style="fill:#dfebfd;fill-opacity:1;fill-rule:nonzero;stroke:none"
            id="path62"/><path
            d="m 5535.16,2312.9 h 2540.93 v 3831 H 5535.16 Z m 2568.98,-28.1 H 5507.12 V 6171.9 H 8104.14 V 2284.8"
            style="fill:#b7d3f3;fill-opacity:1;fill-rule:nonzero;stroke:none"
            id="path64"/><path
            d="M 8090.11,4858 H 5521.14 v 28 h 2568.97 v -28"
            style="fill:#b7d3f3;fill-opacity:1;fill-rule:nonzero;stroke:none"
            id="path66"/><path
            d="M 8090.11,3547.1 H 5521.14 v 28 h 2568.97 v -28"
            style="fill:#b7d3f3;fill-opacity:1;fill-rule:nonzero;stroke:none"
            id="path68"/><path
            d="m 7068.87,5921.2 h -476.71 c -23.14,0 -42.06,19 -42.06,42.1 v 0 c 0,23.1 18.92,42.1 42.06,42.1 h 476.71 c 23.13,0 42.06,-19 42.06,-42.1 v 0 c 0,-23.1 -18.93,-42.1 -42.06,-42.1"
            style="fill:#b7d3f3;fill-opacity:1;fill-rule:nonzero;stroke:none"
            id="path70"/><path
            d="m 7068.87,4639.3 h -476.71 c -23.14,0 -42.06,18.9 -42.06,42 v 0 c 0,23.2 18.92,42.1 42.06,42.1 h 476.71 c 23.13,0 42.06,-18.9 42.06,-42.1 v 0 c 0,-23.1 -18.93,-42 -42.06,-42"
            style="fill:#b7d3f3;fill-opacity:1;fill-rule:nonzero;stroke:none"
            id="path72"/><path
            d="m 7068.87,3302.9 h -476.71 c -23.14,0 -42.06,18.9 -42.06,42.1 v 0 c 0,23.1 18.92,42 42.06,42 h 476.71 c 23.13,0 42.06,-18.9 42.06,-42 v 0 c 0,-23.2 -18.93,-42.1 -42.06,-42.1"
            style="fill:#b7d3f3;fill-opacity:1;fill-rule:nonzero;stroke:none"
            id="path74"/><path
            d="m 19905.1,13917.2 h -1844.3 c -84.7,0 -154,69.3 -154,154 v 1780.1 c 0,84.6 69.3,153.9 154,153.9 h 1844.3 c 84.7,0 154,-69.3 154,-153.9 v -1780.1 c 0,-84.7 -69.3,-154 -154,-154"
            style="fill:#c0d8fb;fill-opacity:1;fill-rule:nonzero;stroke:none"
            id="path76"/><path
            d="m 19825.2,14007.7 h -1684.5 c -77.4,0 -140.6,63.2 -140.6,140.6 v 1625.9 c 0,77.3 63.2,140.6 140.6,140.6 h 1684.5 c 77.3,0 140.6,-63.3 140.6,-140.6 v -1625.9 c 0,-77.4 -63.3,-140.6 -140.6,-140.6"
            style="fill:#dfebfd;fill-opacity:1;fill-rule:nonzero;stroke:none"
            id="path78"/><path
            d="m 18938.4,15724.2 c 0,24.6 19.9,44.6 44.5,44.6 24.7,0 44.6,-20 44.6,-44.6 0,-24.6 -19.9,-44.6 -44.6,-44.6 -24.6,0 -44.5,20 -44.5,44.6"
            style="fill:#b7d3f3;fill-opacity:1;fill-rule:nonzero;stroke:none"
            id="path80"/><path
            d="m 19298.1,15661.2 c 12,21.5 39.1,29.2 60.6,17.3 21.6,-12 29.3,-39.1 17.3,-60.6 -11.9,-21.6 -39.1,-29.3 -60.6,-17.3 -21.5,11.9 -29.3,39.1 -17.3,60.6"
            style="fill:#b7d3f3;fill-opacity:1;fill-rule:nonzero;stroke:none"
            id="path82"/><path
            d="m 19606.3,15416.3 c 20.7,13.4 48.3,7.4 61.6,-13.3 13.4,-20.7 7.4,-48.3 -13.3,-61.6 -20.6,-13.4 -48.2,-7.4 -61.6,13.3 -13.3,20.7 -7.4,48.3 13.3,61.6"
            style="fill:#b7d3f3;fill-opacity:1;fill-rule:nonzero;stroke:none"
            id="path84"/><path
            d="m 19759,15037.3 c 24.6,0 44.5,-19.9 44.5,-44.5 0,-24.7 -19.9,-44.6 -44.5,-44.6 -24.7,0 -44.6,19.9 -44.6,44.6 0,24.6 19.9,44.5 44.6,44.5"
            style="fill:#b7d3f3;fill-opacity:1;fill-rule:nonzero;stroke:none"
            id="path86"/><path
            d="m 19681,14597.5 c 17.4,-17.4 17.4,-45.6 0,-63 -17.4,-17.4 -45.6,-17.4 -63,0 -17.4,17.4 -17.4,45.6 0,63 17.4,17.4 45.6,17.4 63,0"
            style="fill:#b7d3f3;fill-opacity:1;fill-rule:nonzero;stroke:none"
            id="path88"/><path
            d="m 19401.1,14316.8 c 17.4,-17.4 17.4,-45.6 0,-63 -17.4,-17.4 -45.7,-17.4 -63.1,0 -17.4,17.4 -17.4,45.6 0,63 17.4,17.4 45.7,17.4 63.1,0"
            style="fill:#b7d3f3;fill-opacity:1;fill-rule:nonzero;stroke:none"
            id="path90"/><path
            d="m 18938.4,14172.2 c 0,24.6 19.9,44.5 44.5,44.5 24.7,0 44.6,-19.9 44.6,-44.5 0,-24.7 -19.9,-44.6 -44.6,-44.6 -24.6,0 -44.5,19.9 -44.5,44.6"
            style="fill:#b7d3f3;fill-opacity:1;fill-rule:nonzero;stroke:none"
            id="path92"/><path
            d="m 18666.4,15661.2 c -12,21.5 -39.1,29.2 -60.7,17.3 -21.5,-12 -29.2,-39.1 -17.3,-60.6 12,-21.6 39.1,-29.3 60.7,-17.3 21.5,11.9 29.2,39.1 17.3,60.6"
            style="fill:#b7d3f3;fill-opacity:1;fill-rule:nonzero;stroke:none"
            id="path94"/><path
            d="m 18358.2,15416.3 c -20.7,13.4 -48.3,7.4 -61.7,-13.3 -13.3,-20.7 -7.4,-48.3 13.3,-61.6 20.7,-13.4 48.3,-7.4 61.7,13.3 13.3,20.7 7.4,48.3 -13.3,61.6"
            style="fill:#b7d3f3;fill-opacity:1;fill-rule:nonzero;stroke:none"
            id="path96"/><path
            d="m 18205.5,15037.3 c -24.6,0 -44.6,-19.9 -44.6,-44.5 0,-24.7 20,-44.6 44.6,-44.6 24.6,0 44.6,19.9 44.6,44.6 0,24.6 -20,44.5 -44.6,44.5"
            style="fill:#b7d3f3;fill-opacity:1;fill-rule:nonzero;stroke:none"
            id="path98"/><path
            d="m 18283.5,14597.5 c -17.5,-17.4 -17.5,-45.6 0,-63 17.4,-17.4 45.6,-17.4 63,0 17.4,17.4 17.4,45.6 0,63 -17.4,17.4 -45.6,17.4 -63,0"
            style="fill:#b7d3f3;fill-opacity:1;fill-rule:nonzero;stroke:none"
            id="path100"/><path
            d="m 18563.4,14316.8 c -17.4,-17.4 -17.4,-45.6 0,-63 17.4,-17.4 45.7,-17.4 63.1,0 17.4,17.4 17.4,45.6 0,63 -17.4,17.4 -45.7,17.4 -63.1,0"
            style="fill:#b7d3f3;fill-opacity:1;fill-rule:nonzero;stroke:none"
            id="path102"/><path
            d="m 18970.9,14992.8 c 0,24.6 20,44.5 44.6,44.5 24.6,0 44.6,-19.9 44.6,-44.5 0,-24.7 -20,-44.6 -44.6,-44.6 -24.6,0 -44.6,19.9 -44.6,44.6"
            style="fill:#b7d3f3;fill-opacity:1;fill-rule:nonzero;stroke:none"
            id="path104"/><path
            d="m 19021.6,14992.8 h -12.2 v 556.9 h 12.2 v -556.9"
            style="fill:#b7d3f3;fill-opacity:1;fill-rule:nonzero;stroke:none"
            id="path106"/><path
            d="m 19021.2,14979.2 -22.6,28.7 295.3,231.8 22.5,-28.7 -295.2,-231.8"
            style="fill:#b7d3f3;fill-opacity:1;fill-rule:nonzero;stroke:none"
            id="path108"/><path
            d="m 14431.3,7121.6 c -275.2,-479 -621.3,-663.8 -621.3,-663.8 h -1439.9 c 0,0 2271.1,1029.1 2061.2,663.8"
            style="fill:#233862;fill-opacity:1;fill-rule:nonzero;stroke:none"
            id="path110"/><path
            d="m 16207.2,2363.4 c -15.5,-151.1 194.6,-190.1 438.3,-204.9 243.7,-14.7 169.5,-63.9 503,-128 333.5,-64.1 468.4,25.9 493.1,70.8 21.9,39.8 -132.8,104.1 -297.6,176.7 -20.7,9.1 -41.5,18.4 -62.2,27.8 -185.5,83.9 -288.3,252.1 -431.9,408.6 -136,148.3 -261.6,619.5 -261.6,619.5 l -453.1,101.9 c 0,0 123,-424.3 165.3,-605.3 24.9,-106.5 -14.8,-224.8 -49.8,-314.8 -18.9,-49 -38,-99.1 -43.5,-152.3"
            style="fill:#ffb27d;fill-opacity:1;fill-rule:nonzero;stroke:none"
            id="path112"/><path
            d="m 16645.5,2158.5 c 243.7,-14.7 169.5,-63.9 503,-128 333.5,-64.1 468.4,25.9 493.1,70.8 21.9,39.8 -132.8,104.1 -297.6,176.7 l -2.6,-2.8 c 0,0 -235.8,-77.2 -506.2,-0.6 -220.4,62.4 -432.7,196.8 -584.5,241.1 -18.9,-49 -38,-99.1 -43.5,-152.3 -15.5,-151.1 194.6,-190.1 438.3,-204.9"
            style="fill:#0f2549;fill-opacity:1;fill-rule:nonzero;stroke:none"
            id="path114"/><path
            d="m 15520.8,7612.2 c -243.7,171.1 -1856.3,476.3 -2679.3,564.6 l -909.5,789.6 c 0,0 -774.3,-1146.8 -780.4,-2024.1 -2.8,-409 185.6,-449.6 185.6,-449.7 0,0 2915.9,-21.7 3043.7,-34.8 209.2,-21.6 485.1,-542.8 554.1,-1017.5 69,-474.7 1284.9,-2405.4 1284.9,-2405.4 0,0 253.6,-81.3 370.8,-74.4 126.1,7.4 184.5,49.7 184.5,49.7 0,0 -704.6,4215.9 -1254.4,4602"
            style="fill:#233862;fill-opacity:1;fill-rule:nonzero;stroke:none"
            id="path116"/><path
            d="m 15453,2363.4 c -15.5,-151.1 194.6,-190.1 438.3,-204.9 243.7,-14.7 169.5,-63.9 503,-128 333.5,-64.1 468.4,25.9 493,70.8 22,39.8 -132.7,104.1 -297.5,176.7 -20.7,9.1 -41.5,18.4 -62.2,27.8 -185.5,83.9 -288.3,252.1 -431.9,408.6 -136,148.3 -261.6,619.5 -261.6,619.5 l -453.1,101.9 c 0,0 123,-424.3 165.3,-605.3 24.9,-106.5 -14.8,-224.8 -49.8,-314.8 -19,-49 -38,-99.1 -43.5,-152.3"
            style="fill:#ffb27d;fill-opacity:1;fill-rule:nonzero;stroke:none"
            id="path118"/><path
            d="m 15891.3,2158.5 c 243.7,-14.7 169.5,-63.9 503,-128 333.5,-64.1 468.4,25.9 493,70.8 22,39.8 -132.7,104.1 -297.5,176.7 l -2.6,-2.8 c 0,0 -235.8,-77.2 -506.2,-0.6 -220.4,62.4 -432.7,196.8 -584.5,241.1 -19,-49 -38,-99.1 -43.5,-152.3 -15.5,-151.1 194.6,-190.1 438.3,-204.9"
            style="fill:#233862;fill-opacity:1;fill-rule:nonzero;stroke:none"
            id="path120"/><path
            d="m 14760,7612.2 c -211.8,148.7 -848.8,264 -1551.9,349.5 -194.4,23.7 -354.1,165 -401.5,355 v 0 l -1635.5,649.7 c 0,0 -774.2,-1146.8 -780.4,-2024.1 -2.8,-409 185.6,-449.6 185.6,-449.7 0,0 2915.9,-21.7 3043.7,-34.8 209.2,-21.6 485.2,-542.8 554.1,-1017.5 69,-474.7 1284.9,-2405.4 1284.9,-2405.4 0,0 253.6,-81.3 370.8,-74.4 126.2,7.4 184.5,49.7 184.5,49.7 0,0 -704.6,4215.9 -1254.3,4602"
            style="fill:#2b478b;fill-opacity:1;fill-rule:nonzero;stroke:none"
            id="path122"/><path
            d="m 12571.5,13730.8 c -224.8,118.1 -566.7,134 -622.3,141.5 -664.8,89.3 -1064.9,-876.7 -1088.5,-1169.4 -43.3,-539.6 -328.7,-621.8 -730.5,-959.7 -805.53,-677.5 -569.31,-1464.8 -128.8,-1757.4 264.2,-175.5 730.1,0.1 730.1,0.1 6.6,-4.6 1274,708.5 1898.7,1052.5 936.6,133.1 514,2391.7 -58.7,2692.4"
            style="fill:#233862;fill-opacity:1;fill-rule:nonzero;stroke:none"
            id="path124"/><path
            d="m 12432.8,11370.7 c 3,-1.5 -295.4,-137.2 -510.7,-66 -202.6,66.7 -381,371.7 -378.2,372.2 88,12.7 177.3,99.5 202.3,613.5 l 38.9,-9.8 654.7,-165.5 c 0,0 -25.9,-207.4 -36.6,-403.5 -9,-164.7 -7.1,-321.3 29.6,-340.9"
            style="fill:#ffb27d;fill-opacity:1;fill-rule:nonzero;stroke:none"
            id="path126"/><path
            d="m 12439.8,12115.1 c 0,0 0,-42.7 -24.5,-235.6 -370.2,93.4 -533.5,216.1 -648.6,356.6 l 673.1,-121"
            style="fill:#ed975d;fill-opacity:1;fill-rule:nonzero;stroke:none"
            id="path128"/><path
            d="m 12579.5,12089 c 0,0 -865.8,-141 -945.2,399.5 -79.5,540.5 -244.8,886.3 304.6,999.2 549.4,112.8 687.4,-77.6 757.8,-251.6 70.4,-173.9 105.9,-1096.5 -117.2,-1147.1"
            style="fill:#ffb27d;fill-opacity:1;fill-rule:nonzero;stroke:none"
            id="path130"/><path
            d="m 12580.3,13510.3 c 0,0 -393.1,-620.6 -744.1,-767.6 -351,-147 -523.4,-72.3 -523.4,-72.3 0,0 159.7,242.1 201.3,567.1 12.2,95.9 74.7,178 164.3,213.9 251.9,100.9 739.1,260 901.9,58.9"
            style="fill:#233862;fill-opacity:1;fill-rule:nonzero;stroke:none"
            id="path132"/><path
            d="m 12235,13450.3 c 0,0 230.4,-118.1 325.3,-228.9 91.6,-106.8 197.4,-396.7 189.8,-526.9 0,0 113.7,623.9 -123.1,838.4 -251.1,227.5 -392,-82.6 -392,-82.6"
            style="fill:#233862;fill-opacity:1;fill-rule:nonzero;stroke:none"
            id="path134"/><path
            d="m 13125.4,10050.3 c -26.2,-1759.8 -7.2,-1392 -199.7,-1559 -46.4,-40.2 -176.7,-64.2 -348.4,-75.5 -539.6,-35.8 -1488.1,53 -1524.2,152.8 -124.5,345 -36.6,452.2 -140.4,980.5 -10.9,56.2 -24.3,117 -40,183.2 -86.6,362.8 -170.8,486.3 136.3,1069.1 278.6,528 606.2,957 632.2,941.5 734.9,-436.3 760.1,-70.6 760.1,-70.6 0,0 737,-763.7 724.1,-1622"
            style="fill:#ffffff;fill-opacity:1;fill-rule:nonzero;stroke:none"
            id="path136"/><path
            d="m 12401.3,11672.3 c 0,0 752.2,-127.5 841,-453 88.8,-325.6 611.3,-2239.7 611.3,-2239.7 0,0 -384.4,-69.1 -562,108.5 -177.6,177.6 -618,1647.7 -618,1647.7 l -272.3,936.5"
            style="fill:#ffffff;fill-opacity:1;fill-rule:nonzero;stroke:none"
            id="path138"/><path
            d="m 12577.3,8415.8 c -539.6,-35.8 -1488.1,53 -1524.2,152.8 -124.5,345 -36.6,452.2 -140.4,980.5 l 260.2,732.8 c 0,0 -43,-816.1 197.7,-1030.7 240.4,-214.7 985.4,-414.4 1102.4,-593.7 56.4,-86.1 93.5,-172.4 104.3,-241.7"
            style="fill:#ebf3ff;fill-opacity:1;fill-rule:nonzero;stroke:none"
            id="path140"/><path
            d="m 11959.1,8759 c 0,0 532.3,118.5 618.2,71.3 85.9,-47.2 295.9,-219.3 322.1,-279.2 26.3,-59.8 -191.2,45.5 -261.9,64.5 -45.9,12.3 -166.5,-29.7 -226.2,-49.6 -251.2,-83.7 -405.2,-40.6 -405.2,-40.6 l -47,233.6"
            style="fill:#ffb27d;fill-opacity:1;fill-rule:nonzero;stroke:none"
            id="path142"/><path
            d="m 11641.2,11742.9 c 0,0 -753.4,-44 -1000.9,-389.1 C 10292,10867.9 9601,8797.4 9997.01,8521.3 10443,8210.3 12026.8,8440 12026.8,8440 c 0,0 52.7,246.3 -20.7,365.5 -73.3,119.1 -1264.9,311.6 -1319.9,366.6 -55,55 687.4,1072.5 687.4,1237.5 0,165 267.6,1333.3 267.6,1333.3"
            style="fill:#ffffff;fill-opacity:1;fill-rule:nonzero;stroke:none"
            id="path144"/><path
            d="m 12603.1,8682.1 c 0,0 111.5,-143.8 148.1,-161 36.6,-17.2 60.2,-12.9 60.2,-12.9 l -75.2,135.3 -133.1,38.6"
            style="fill:#ffb27d;fill-opacity:1;fill-rule:nonzero;stroke:none"
            id="path146"/><path
            d="m 12577.3,8830.3 324.3,-157.5 c 0,0 -13.8,-22.6 -53.7,-20.7 -39.9,1.8 -140.6,38.6 -140.6,38.6 l -130,139.6"
            style="fill:#ffb27d;fill-opacity:1;fill-rule:nonzero;stroke:none"
            id="path148"/><path
            d="m 13772,8457 h -1506.2 v 0 c 0,66.3 53.8,120 120.1,120 H 13772 v -120"
            style="fill:#ed7d2b;fill-opacity:1;fill-rule:nonzero;stroke:none"
            id="path150"/><path
            d="m 13767.6,10097.3 h 2328.7 L 15537.7,8457 H 13194 l 573.6,1640.3"
            style="fill:#ed7d2b;fill-opacity:1;fill-rule:nonzero;stroke:none"
            id="path152"/><path
            d="M 16130.6,10097.4 15572,8457 h -2343.7 l 573.7,1640.4 h 2328.6"
            style="fill:#f99746;fill-opacity:1;fill-rule:nonzero;stroke:none"
            id="path154"/><path
            d="m 14875.1,9292.3 c -14.4,-62.7 -77,-113.5 -139.7,-113.5 -62.6,0 -101.7,50.8 -87.2,113.5 14.4,62.7 77,113.5 139.6,113.5 62.7,0 101.8,-50.8 87.3,-113.5"
            style="fill:#ffffff;fill-opacity:1;fill-rule:nonzero;stroke:none"
            id="path156"/><path
            d="m 11745.2,8087.9 h 10204.9 c 42.9,0 77.7,34.8 77.7,77.7 v 213.7 c 0,42.9 -34.8,77.7 -77.7,77.7 H 11745.2 c -42.9,0 -77.7,-34.8 -77.7,-77.7 v -213.7 c 0,-42.9 34.8,-77.7 77.7,-77.7"
            style="fill:#182d4f;fill-opacity:1;fill-rule:nonzero;stroke:none"
            id="path158"/><path
            d="m 22199.9,2008.8 4.4,0.5 c 52.3,6.5 89.3,53.2 82.7,104.3 l -909.4,6155.6 -332.9,-9.5 1069.9,-6189 c 6.9,-39.6 44.5,-66.9 85.3,-61.9"
            style="fill:#182d4f;fill-opacity:1;fill-rule:nonzero;stroke:none"
            id="path160"/><path
            d="m 11403.5,2008.8 -4.4,0.5 c -52.3,6.5 -89.3,53.2 -82.7,104.3 l 909.4,6155.6 332.9,-9.5 -1070,-6189 c -6.8,-39.6 -44.4,-66.9 -85.2,-61.9"
            style="fill:#182d4f;fill-opacity:1;fill-rule:nonzero;stroke:none"
            id="path162"/><path
            d="m 13508.7,2008.8 -4.4,0.5 c -52.2,6.5 -89.3,53.2 -82.6,104.3 l 909.3,6155.6 333,-9.5 -1070,-6189 c -6.9,-39.6 -44.5,-66.9 -85.3,-61.9"
            style="fill:#182d4f;fill-opacity:1;fill-rule:nonzero;stroke:none"
            id="path164"/><path
            d="M 30306.6,1958.1 H 2043.86 c -21.25,0 -38.64,17.4 -38.64,38.6 v 31.6 c 0,21.3 17.39,38.7 38.64,38.7 H 30306.6 c 21.2,0 38.6,-17.4 38.6,-38.7 v -31.6 c 0,-21.2 -17.4,-38.6 -38.6,-38.6"
            style="fill:#2e3552;fill-opacity:1;fill-rule:nonzero;stroke:none"
            id="path166"/><path
            d="m 18873.7,2013.8 h 1804.6 c 86.8,105.9 54.8,496.7 41.7,624.3 -2.8,25.7 -4.6,40.7 -4.6,40.7 0,0 -616.2,492.9 -700.9,115.5 -2.6,-11.8 -5.7,-23.4 -9.1,-34.8 -106.6,-353 -585,-513.5 -861.2,-558.1 -179.6,-29.2 -245.9,-122.5 -270.5,-187.6"
            style="fill:#233862;fill-opacity:1;fill-rule:nonzero;stroke:none"
            id="path168"/><path
            d="m 23797.7,7877.4 c -65.2,0 -3091.1,-568.1 -3591.6,-1187.7 -250.1,-309.5 -287.3,-3884.1 -287.3,-3884.1 0,0 309.4,-383.5 977.5,-160.8 0,0 489.8,2445.6 453.7,3187.4 -10.1,205.1 2067.4,29.7 2447.7,128.1 380.2,98.4 1309.3,925.6 1104.5,1328.5 -204.7,403 -1104.5,588.6 -1104.5,588.6"
            style="fill:#233862;fill-opacity:1;fill-rule:nonzero;stroke:none"
            id="path170"/><path
            d="m 20219,8752.7 c 0,0 -610.3,-8.2 -754.7,-70.1 -144.3,-61.8 -437.2,-203.8 -358.8,-225.6 78.4,-21.8 452.3,8.9 533.1,-3.4 80.8,-12.4 180.4,3.4 229.9,3.4 49.5,0 280.3,0 280.3,0 l 70.2,295.7"
            style="fill:#ffb27d;fill-opacity:1;fill-rule:nonzero;stroke:none"
            id="path172"/><path
            d="m 19505.4,10217.5 c 0,0 -208.1,148.7 -410.2,177.6 -115.2,16.5 -227.3,37 -295,60.9 -186.5,65.7 -559.6,401.1 -531.3,440.5 90.4,126.1 526,-140.8 602,-112.1 76.1,28.6 -146.1,186.6 -68.8,242.1 40.3,29.1 134.7,-116.4 211.9,-131 104.4,-19.7 186.1,-167.2 217.5,-174.9 61.2,-15 329.1,-214.2 329.1,-214.2 l -55.2,-288.9"
            style="fill:#ffb27d;fill-opacity:1;fill-rule:nonzero;stroke:none"
            id="path174"/><path
            d="m 23496.3,11954.1 c 0,0 -464.6,-144 -922.4,-1404.6 -457.8,-1260.6 -631.7,-1328.7 -798.1,-1378.2 -166.4,-49.4 -1627,-340.2 -1627,-340.2 V 8457 h 2250.6 c 0,0 843.9,802.7 1096.9,1343.1 253,540.5 0,2154 0,2154"
            style="fill:#ed7d2b;fill-opacity:1;fill-rule:nonzero;stroke:none"
            id="path176"/><path
            d="m 18076.2,2013.8 h 1804.5 c 86.8,105.9 54.8,496.7 41.7,624.3 -2.7,25.7 -4.5,40.7 -4.5,40.7 0,0 -616.3,492.9 -700.9,115.5 -2.6,-11.8 -5.7,-23.4 -9.1,-34.8 -106.7,-353 -585,-513.5 -861.2,-558.1 -179.6,-29.2 -246,-122.5 -270.5,-187.6"
            style="fill:#1b3051;fill-opacity:1;fill-rule:nonzero;stroke:none"
            id="path178"/><path
            d="m 22906,7877.4 c -65.2,0 -3091.1,-568.1 -3591.6,-1187.7 -250.1,-309.5 -287.3,-3884.1 -287.3,-3884.1 0,0 309.4,-383.5 977.5,-160.8 0,0 489.8,2445.6 453.7,3187.4 -10.1,205.1 2067.4,29.7 2447.7,128.1 380.2,98.4 1309.3,925.6 1104.5,1328.5 -204.7,403 -1104.5,588.6 -1104.5,588.6"
            style="fill:#2b478b;fill-opacity:1;fill-rule:nonzero;stroke:none"
            id="path180"/><path
            d="m 23095.4,11554.6 c 217.6,18 445.9,76 643.1,140 246.6,80 445.4,197 317.3,422.3 -118.1,207.7 -309.1,671.8 -296.2,1056.2 l -458.8,-369.8 -311.7,-251.2 c 0,0 1.3,-148 35.3,-407.5 6.3,-47.3 13.5,-98.4 22.1,-152.9 7,-44.1 -13.3,-88.2 -51.2,-111.7 -2.4,-1.4 -4.7,-2.9 -7,-4.4 -154.9,-97.3 -75.3,-336 107.1,-321"
            style="fill:#ffb27d;fill-opacity:1;fill-rule:nonzero;stroke:none"
            id="path182"/><path
            d="m 22989.1,12613.3 c 0,0 -16,-53.8 11.4,-252.3 277.9,45.3 537.7,266.9 537.7,266.9 -141.5,38.9 -193,191.7 -298.3,177.5 l -250.8,-192.1"
            style="fill:#ed975d;fill-opacity:1;fill-rule:nonzero;stroke:none"
            id="path184"/><path
            d="m 22732.1,12568 c 0,0 1068.8,-177.6 1169.2,489.7 100.3,667.4 305.8,1093.9 -372.4,1235.5 -678.2,141.6 -849.3,-93.1 -937,-307.7 -87.7,-214.6 -135.3,-1354.1 140.2,-1417.5"
            style="fill:#ffb27d;fill-opacity:1;fill-rule:nonzero;stroke:none"
            id="path186"/><path
            d="m 22434.7,14280.8 c -45.9,-160.7 76.9,-356.4 283.1,-420.9 306.1,-95.6 238.5,-471 376.2,-466 137.7,5.2 193.3,215.9 316.3,47.5 105,-143.6 -87.3,-313.8 -74.1,-392.6 22.7,-135.2 234.5,-411.8 425.3,-397.9 190.9,13.9 548,920.8 476.5,1201.4 -71.4,280.6 -357.1,576.5 -627.4,617.3 -270.4,40.8 -645.9,-76 -732.6,-76 -86.7,0 -418.5,-26 -443.3,-112.8"
            style="fill:#2b478b;fill-opacity:1;fill-rule:nonzero;stroke:none"
            id="path188"/><path
            d="m 24916.5,11027.9 c -154.5,621.8 -581.5,1274.3 -870.2,1273.7 -491.9,-0.9 -1199.2,-130.7 -1484.7,-835.1 -210.3,-518.8 -490.8,-3503.1 -173.8,-3715.3 724.7,-485.2 2404.6,-1475.7 2703,-465.6 273.5,925.4 93.8,2663.2 -174.3,3742.3"
            style="fill:#f99746;fill-opacity:1;fill-rule:nonzero;stroke:none"
            id="path190"/><path
            d="m 23721.6,11646.7 c -140.3,365.1 -593,491.3 -901.7,251.1 -167,-129.9 -371.4,-314.9 -618.4,-577.9 -918.1,-977.6 -1104.7,-971.6 -1277.1,-951.4 -172.5,20.2 -1629.3,329.4 -1629.3,329.4 0,0 -74.6,-55 -118.5,-144 -58.6,-118.8 -29.1,-199.7 -29.1,-199.7 -57.1,36.8 516.4,-358.5 801.9,-516.1 376.9,-208.1 944.9,-403.3 1171.2,-477.4 64.1,-21 133.2,-19.9 196.7,3 335.8,121 1463.5,562 2381.4,1327.3 241.9,201.7 153,617.2 22.9,955.7"
            style="fill:#f99746;fill-opacity:1;fill-rule:nonzero;stroke:none"
            id="path192"/><path
            d="m 24095.8,12295.6 -111.3,251 c 0,0 -997,-81.3 -1164.6,-648.8 0,0 772.8,385.7 1275.9,397.8"
            style="fill:#ffffff;fill-opacity:1;fill-rule:nonzero;stroke:none"
            id="path194"/><path
            d="m 26516.4,2036.3 6.9,0.1 c 56.3,1 99.7,47 94.4,100 l -375.5,3750.7 -327.7,-29.3 539.2,-3770.8 c 4.3,-29.5 31.2,-51.3 62.7,-50.7"
            style="fill:#8cb4f4;fill-opacity:1;fill-rule:nonzero;stroke:none"
            id="path196"/><path
            d="m 24583.3,2036.3 6.9,0.1 c 56.3,1 99.8,47 94.5,100 l -375.6,3750.7 -327.7,-29.3 539.3,-3770.8 c 4.2,-29.5 31.1,-51.3 62.6,-50.7"
            style="fill:#8cb4f4;fill-opacity:1;fill-rule:nonzero;stroke:none"
            id="path198"/><path
            d="m 20954.3,2036.3 -6.9,0.1 c -56.2,1 -99.7,47 -94.4,100 l 375.5,3750.7 327.7,-29.3 L 21017,2087 c -4.2,-29.5 -31.2,-51.3 -62.7,-50.7"
            style="fill:#73a2e5;fill-opacity:1;fill-rule:nonzero;stroke:none"
            id="path200"/><path
            d="m 26410.3,6418.4 356.4,3132.6 c 46.7,451.4 -104.3,893.5 -755.8,927.7 l -1146,69.8 c -679.3,28 -986,-537.3 -1072,-972.5 l -680.4,-3443.6 3297.8,286"
            style="fill:#8cb4f4;fill-opacity:1;fill-rule:nonzero;stroke:none"
            id="path202"/><path
            d="m 26218.7,5832.2 h -5086.5 c -102.2,0 -185.9,83.6 -185.9,185.8 v 228.8 c 0,102.2 83.7,185.8 185.9,185.8 h 5272.3 V 6018 c 0,-102.2 -83.6,-185.8 -185.8,-185.8"
            style="fill:#73a2e5;fill-opacity:1;fill-rule:nonzero;stroke:none"
            id="path204"/><path
            d="m 26260.2,5832.2 h -3003.4 c -79.3,0 -144.3,65 -144.3,144.3 v 311.8 c 0,79.4 65,144.3 144.3,144.3 h 3147.7 v -456.1 c 0,-79.3 -64.9,-144.3 -144.3,-144.3"
            style="fill:#8cb4f4;fill-opacity:1;fill-rule:nonzero;stroke:none"
            id="path206"/></g></g></svg>
