<?xml version="1.0" encoding="UTF-8" standalone="no"?>
<svg
        xmlns:dc="http://purl.org/dc/elements/1.1/"
        xmlns:cc="http://creativecommons.org/ns#"
        xmlns:rdf="http://www.w3.org/1999/02/22-rdf-syntax-ns#"
        xmlns:svg="http://www.w3.org/2000/svg"
        xmlns="http://www.w3.org/2000/svg"
        xmlns:sodipodi="http://sodipodi.sourceforge.net/DTD/sodipodi-0.dtd"
        xmlns:inkscape="http://www.inkscape.org/namespaces/inkscape"
        version="1.1"
        id="svg2"
        xml:space="preserve"
        width="4000"
        height="2666.6667"
        viewBox="0 0 4000 2666.6667"><defs
     id="defs6"><clipPath
       clipPathUnits="userSpaceOnUse"
       id="clipPath142"><path
         d="M 10914.2,14737.2 H 9377.96 l 480.93,1929.9 h 1536.31 l -481,-1929.9"
         id="path140" /></clipPath></defs>
    <g
            id="g10"
            inkscape:groupmode="layer"
            inkscape:label="ink_ext_XXXXXX"
            transform="matrix(1.3333333,0,0,-1.3333333,0,2666.6667)"><g
       id="g12"
       transform="scale(0.1)"><path
         d="M 0,0 H 30000 V 20000 H 0 Z"
         style="fill:#ffffff;fill-opacity:1;fill-rule:nonzero;stroke:none"
         id="path14" /><path
            d="m 5803.02,3344.2 c 0,0 -2909.77,-534.4 -3836.03,1487.3 -1201.717,2622.8 1267.17,4611.4 3160.7,4240.9 1961.03,-383.7 2765.58,1427 3780.91,3237.6 1120.9,1999 2498.8,3998 5973.3,3044.2 576.8,-158.3 1457.6,23.7 2440.4,205.8 2190.1,405.7 4886.9,811.3 5855.4,-2549.2 333.6,-1157.7 1515.7,-1285.2 3231.7,-2019.8 3358.3,-1437.7 1822.8,-7671.1 -576.9,-7695.5 -2399.7,-24.5 -20029.48,48.7 -20029.48,48.7"
            style="fill:#ebf2f9;fill-opacity:1;fill-rule:nonzero;stroke:none"
            id="path16"/><path
            d="m 20232.9,3309.4 h 1713.7 v 6385.9 h -1713.7 z"
            style="fill:#82b479;fill-opacity:1;fill-rule:nonzero;stroke:none"
            id="path18"/><path
            d="M 19432.7,3309.4 H 20692 v 6385.9 h -1259.3 z"
            style="fill:#a8d29f;fill-opacity:1;fill-rule:nonzero;stroke:none"
            id="path20"/><path
            d="m 20364.6,3985.9 c 0,-155.2 -125.9,-281.1 -281.1,-281.1 -155.2,0 -281.1,125.9 -281.1,281.1 0,155.3 125.9,281.1 281.1,281.1 155.2,0 281.1,-125.8 281.1,-281.1"
            style="fill:#82b479;fill-opacity:1;fill-rule:nonzero;stroke:none"
            id="path22"/><path
            d="m 22746.7,3309.4 h 1713.8 V 9695.3 H 22746.7 V 3309.4"
            style="fill:#699dee;fill-opacity:1;fill-rule:nonzero;stroke:none"
            id="path24"/><path
            d="m 21946.6,3309.4 h 1259.2 V 9695.3 H 21946.6 V 3309.4"
            style="fill:#afcdfb;fill-opacity:1;fill-rule:nonzero;stroke:none"
            id="path26"/><path
            d="m 22878.4,3985.9 c 0,-155.2 -125.8,-281.1 -281,-281.1 -155.3,0 -281.1,125.9 -281.1,281.1 0,155.3 125.8,281.1 281.1,281.1 155.2,0 281,-125.8 281,-281.1"
            style="fill:#699dee;fill-opacity:1;fill-rule:nonzero;stroke:none"
            id="path28"/><path
            d="m 22878.4,5693.6 h -562.1 v 3351.8 h 562.1 V 5693.6"
            style="fill:#ffffff;fill-opacity:1;fill-rule:nonzero;stroke:none"
            id="path30"/><path
            d="m 25231.1,3309.4 h 1713.8 V 9695.3 H 25231.1 V 3309.4"
            style="fill:#d86713;fill-opacity:1;fill-rule:nonzero;stroke:none"
            id="path32"/><path
            d="m 24431,3309.4 h 1259.2 V 9695.3 H 24431 V 3309.4"
            style="fill:#f1a34f;fill-opacity:1;fill-rule:nonzero;stroke:none"
            id="path34"/><path
            d="m 25362.9,3985.9 c 0,-155.2 -125.9,-281.1 -281.1,-281.1 -155.3,0 -281.1,125.9 -281.1,281.1 0,155.3 125.8,281.1 281.1,281.1 155.2,0 281.1,-125.8 281.1,-281.1"
            style="fill:#d86713;fill-opacity:1;fill-rule:nonzero;stroke:none"
            id="path36"/><path
            d="m 25362.9,5693.6 h -562.2 v 3351.8 h 562.2 V 5693.6"
            style="fill:#ffffff;fill-opacity:1;fill-rule:nonzero;stroke:none"
            id="path38"/><path
            d="m 19781.2,5650.7 h 562.203 V 9002.5 H 19781.2 Z"
            style="fill:#ffffff;fill-opacity:1;fill-rule:nonzero;stroke:none"
            id="path40"/><path
            d="m 16118.9,10932.7 604.3,-7184.3 c 0,0 63.3,-435.5 -260.7,-436.3 -532.6,-1.2 -2651,0 -2651,0 0,0 400.9,90.7 396,294.7 -5.7,240.4 -706.2,7393.9 -706.2,7393.9 l 2617.6,-68"
            style="fill:#d86713;fill-opacity:1;fill-rule:nonzero;stroke:none"
            id="path42"/><path
            d="m 13639.6,3442.5 c 104.8,-0.3 2128.1,-6.7 2646.8,0 226.1,2.8 265.7,201 267.6,329.2 0.9,61.5 -6.9,107 -6.9,107 l -15.7,186.7 -40.1,475.9 -35.3,420.5 -45.5,540.3 -38.3,456.1 -429.3,5104.9 -2617.6,68 c 0,0 295,-2993.7 503.7,-5172.9 23.3,-242.8 45.4,-475.6 65.9,-692.9 6.7,-69.4 13,-137.2 19.3,-203.3 19.3,-206.2 37,-395.5 52.4,-562.7 8.1,-88.1 15.6,-170 22.4,-245 26.6,-293.9 42.2,-481.5 42.4,-517.2 0.1,-20.8 -1.7,-40.2 -5.1,-58.2 -43,-228.9 -347.3,-236.4 -386.7,-236.4"
            style="fill:#ee9849;fill-opacity:1;fill-rule:nonzero;stroke:none"
            id="path44"/><path
            d="M 9908.71,14842.2 H 22476 L 21004.2,8930.4 20802.7,8120.7 20117.3,5367.2 H 7382.15 l 2526.56,9475"
            style="fill:#f1a34f;fill-opacity:1;fill-rule:nonzero;stroke:none"
            id="path46"/><path
            d="m 22476,14842.2 204,-68 -2291.6,-9612.7 -271.2,205.6 2358.8,9475.1"
            style="fill:#ee9849;fill-opacity:1;fill-rule:nonzero;stroke:none"
            id="path48"/><path
            d="M 20388.4,5161.5 H 7731.7 l -349.51,205.6 H 20117.2 l 271.2,-205.6"
            style="fill:#d86713;fill-opacity:1;fill-rule:nonzero;stroke:none"
            id="path50"/><path
            d="m 13203.4,3309.4 h 2740.4 v 130.203 h -2740.4 z"
            style="fill:#f1a34f;fill-opacity:1;fill-rule:nonzero;stroke:none"
            id="path52"/><path
            d="m 13900,5161.5 14.2,-99.5 2577.1,-520.7 -35.3,420.5 -16.9,199.7 H 13900"
            style="fill:#d86713;fill-opacity:1;fill-rule:nonzero;stroke:none"
            id="path54"/><path
            d="m 15651.1,3439.6 h -613.6 c -666.8,0.6 -1338.7,2.7 -1397.9,2.9 39.4,0 343.7,7.5 386.7,236.4 3.3,17.5 5.1,36.2 5.1,56.2 0,0.7 0,1.3 0,2 -0.2,35.7 -15.8,223.3 -42.4,517.2 l 2565,-482.6 c -1.9,-128.2 -41.5,-326.4 -267.6,-329.2 -132.6,-1.7 -363.3,-2.6 -635.3,-2.9"
            style="fill:#e58433;fill-opacity:1;fill-rule:nonzero;stroke:none"
            id="path56"/><path
            d="m 15365.6,3439.5 c -107.4,0 -217.7,0 -328.1,0.1 v 0 h 613.6 c -91.3,-0.1 -187.2,-0.1 -285.5,-0.1"
            style="fill:#e78b37;fill-opacity:1;fill-rule:nonzero;stroke:none"
            id="path58"/><path
            d="m 20117.3,5367.2 v 0 0 l -0.1,-0.1"
            style="fill:#bba767;fill-opacity:1;fill-rule:nonzero;stroke:none"
            id="path60"/><path
            d="m 20117.3,5367.2 v 0 l -5428.9,1861.4 5892.5,1.1 -378.8,-1521.7 -84.9,-340.9"
            style="fill:#e78b37;fill-opacity:1;fill-rule:nonzero;stroke:none"
            id="path62"/><path
            d="m 20117.3,5367.2 v 0 l -0.1,-0.1 84.9,340.9 -84.8,-340.8"
            style="fill:#e58433;fill-opacity:1;fill-rule:nonzero;stroke:none"
            id="path64"/><path
            d="M 9908.72,14842.2 H 22476 l -1894,-7612.5 -12712.35,-2.5 2039.07,7615"
            style="fill:#f1a34f;fill-opacity:1;fill-rule:nonzero;stroke:none"
            id="path66"/><path
            d="m 13412.1,6264.6 c 36.3,186.8 217.1,338.2 403.9,338.2 186.7,0 308.7,-151.4 272.4,-338.2 -36.3,-186.7 -217.1,-338.1 -403.9,-338.1 -186.8,0 -308.7,151.4 -272.4,338.1"
            style="fill:#d86713;fill-opacity:1;fill-rule:nonzero;stroke:none"
            id="path68"/><path
            d="M 8462.37,7557.2 H 20229.2 l 1332.6,5308.6 102.1,407 87.2,347.3 204.4,814.2 H 10358.2 l -224.4,-814.2 -95.7,-347.3 -112.24,-407 -1463.49,-5308.6"
            style="fill:#e9f3fe;fill-opacity:1;fill-rule:nonzero;stroke:none"
            id="path70"/><path
            d="m 10358.2,14434.3 h 11597.3 l -204.4,-814.2 H 10133.8 l 224.4,814.2"
            style="fill:#a8d29f;fill-opacity:1;fill-rule:nonzero;stroke:none"
            id="path72"/><path
            d="m 21399.3,14168.1 c 56.2,0 90.4,-45.6 76.4,-101.8 -14,-56.2 -71,-101.8 -127.2,-101.8 -56.2,0 -90.4,45.6 -76.4,101.8 14,56.2 71,101.8 127.2,101.8"
            style="fill:#e9f3fe;fill-opacity:1;fill-rule:nonzero;stroke:none"
            id="path74"/><path
            d="m 21061.1,14168.1 c 56.2,0 90.4,-45.6 76.4,-101.8 -14,-56.2 -70.9,-101.8 -127.1,-101.8 -56.3,0 -90.5,45.6 -76.5,101.8 14.1,56.2 71,101.8 127.2,101.8"
            style="fill:#e9f3fe;fill-opacity:1;fill-rule:nonzero;stroke:none"
            id="path76"/><path
            d="m 20569.8,14066.3 c 14,56.2 70.9,101.8 127.2,101.8 56.2,0 90.4,-45.6 76.3,-101.8 -14,-56.2 -70.9,-101.8 -127.1,-101.8 -56.2,0 -90.4,45.6 -76.4,101.8"
            style="fill:#e9f3fe;fill-opacity:1;fill-rule:nonzero;stroke:none"
            id="path78"/><path
            d="m 4214.52,4041.3 c 0,0 -149.79,-138.8 -120.56,-237.4 29.22,-98.7 164.4,-164.4 182.67,-285 18.26,-120.6 91.32,-186.3 157.09,-186.3 65.75,0 313.51,0 313.51,0 0,0 48.4,84.8 -68.51,110.4 -116.9,25.6 -160.98,167.2 -153.67,298.8 7.3,131.5 -10.96,306.8 -10.96,306.8 l -248.43,58.5 -51.14,-65.8"
            style="fill:#233862;fill-opacity:1;fill-rule:nonzero;stroke:none"
            id="path80"/><path
            d="M 6930.11,3332.8 H 6097.6 c -7.23,1.5 -12.73,3.1 -16.23,4.9 -55.49,27.7 -38.19,240 -31.48,305.8 1.3,12.2 2.21,19.4 2.21,19.4 0,0 292.32,233.7 332.48,54.7 1.23,-5.6 2.75,-11.1 4.35,-16.5 50.54,-167.4 277.45,-243.6 408.48,-264.8 99.92,-16.2 125.91,-74.3 132.7,-103.5"
            style="fill:#233862;fill-opacity:1;fill-rule:nonzero;stroke:none"
            id="path82"/><path
            d="m 6762.63,8125.7 c 0,0 -44.39,-553.8 -96.56,-1219.5 -70.9,-904.3 -156.17,-2015.1 -164.61,-2225.5 -14.58,-365.4 -73.11,-949.9 -73.11,-949.9 0,0 -138.75,-138.9 -416.47,-80.3 0,0 -247.47,834.3 -318.16,1717.1 -1.1,14.5 -2.19,29.1 -3.3,43.7 -65.75,898.7 -168,2791.1 -168,2791.1 l 1240.21,-76.7"
            style="fill:#699dee;fill-opacity:1;fill-rule:nonzero;stroke:none"
            id="path84"/><path
            d="m 6762.63,8125.7 c 0,0 -44.39,-553.8 -96.56,-1219.5 L 5693.72,5367.6 c -1.1,14.5 -2.19,29.1 -3.3,43.7 -65.75,898.7 -168,2791.1 -168,2791.1 l 1240.21,-76.7"
            style="fill:#4a75cb;fill-opacity:1;fill-rule:nonzero;stroke:none"
            id="path86"/><path
            d="m 6559.93,8059.9 c 0,0 -800.07,-2005.6 -1326.15,-2948.2 -526.07,-942.5 -690.46,-1205.6 -690.46,-1205.6 0,0 -301.4,120.6 -328.8,202.8 0,0 201.17,1819.6 553.47,2263.2 199.08,250.7 432.91,1002.8 443.87,1265.9 10.97,263 71.25,783.6 71.25,783.6 l 1276.82,-361.7"
            style="fill:#699dee;fill-opacity:1;fill-rule:nonzero;stroke:none"
            id="path88"/><path
            d="m 7369.03,8613.6 45.73,-91.1 c 0,0 232.54,-32.5 168.53,-274.9 0,0 -34.48,-99.8 -98.61,-68.2 -64.13,31.5 -32.54,28.9 -124.45,71.3 -91.9,42.5 -145.09,124.1 -124.54,199 l -14.72,79.3 148.06,84.6"
            style="fill:#ffb27d;fill-opacity:1;fill-rule:nonzero;stroke:none"
            id="path90"/><path
            d="m 6149.59,11155.9 c 35.58,210 36.66,334.5 36.66,334.5 l -405.93,327.1 c 15.08,-449.8 -273.17,-666.1 -273.17,-666.1 0,0 540.94,-266.3 853.62,-167.7 0,0 -76.99,98.4 -211.18,172.2"
            style="fill:#ffb27d;fill-opacity:1;fill-rule:nonzero;stroke:none"
            id="path92"/><path
            d="m 6281.87,11497.8 c 0,0 -516.42,-85.8 -564.89,236.6 -48.47,322.5 -147.78,528.5 179.9,596.9 327.66,68.4 410.37,-44.9 452.72,-148.6 42.36,-103.7 65.36,-654.3 -67.73,-684.9"
            style="fill:#ffb27d;fill-opacity:1;fill-rule:nonzero;stroke:none"
            id="path94"/><path
            d="m 5720.39,11712.2 c 0,0 10.42,431.9 480.96,501.2 322.3,47.5 127.11,316.8 90.27,359.4 0,0 -246.38,-47 -498.55,-102.3 -529.27,-116.2 -128.62,-694.1 -72.68,-758.3"
            style="fill:#163560;fill-opacity:1;fill-rule:nonzero;stroke:none"
            id="path96"/><path
            d="m 7314.84,8486.9 c 69.03,70.9 120.29,163.1 120.29,163.1 0,0 -586.75,729 -634.45,804.6 -47.69,75.6 -404.04,1288.1 -404.04,1288.1 l -901.13,182.6 c 0,0 752.17,-1551.8 876.78,-1741 205.92,-312.6 821.94,-777.9 821.94,-777.9 0,0 66.39,24.9 120.61,80.5"
            style="fill:#82b479;fill-opacity:1;fill-rule:nonzero;stroke:none"
            id="path98"/><path
            d="m 6797.13,8079.6 c -9.41,-7.9 -20.34,-12.5 -32.86,-12.5 -117.4,1.5 -459.77,-63.7 -749.46,-33.9 -244.22,23.4 -460.37,95.8 -692.5,199.8 -30.83,13.8 -101.77,51.7 -100.18,86.2 1.05,37.7 4.79,92.4 9.5,161.3 16.43,239.6 45.06,651.7 17.14,1127.2 -5.02,88.5 -7.66,176.3 -7.97,262.8 -2.4,644.3 123.18,1214.3 379.92,1406.1 21.94,15.7 158.77,-53.3 282.47,-114.3 114.3,-56.4 194.23,-55.1 302.22,-33.2 l 142.36,-103 c 131.52,-122.1 275.57,-288.1 338.18,-540.1 53.28,-214.5 84.54,-601.3 101.77,-1002 7.82,-181.6 14.12,-364.8 15.71,-538.6 v -6.3 c 1.52,-17.2 1.52,-36 1.52,-53.3 6.3,-446.1 0,-799.9 -7.82,-806.2"
            style="fill:#a8d29f;fill-opacity:1;fill-rule:nonzero;stroke:none"
            id="path100"/><path
            d="m 5231.63,8480.5 c 16.43,239.6 45.06,651.7 17.14,1127.2 -5.02,88.5 -7.66,176.3 -7.97,262.8 106.95,259.4 194.37,447.6 194.37,447.6 h 269.59 c 0,0 197.64,-1350 -473.13,-1837.6"
            style="fill:#82b479;fill-opacity:1;fill-rule:nonzero;stroke:none"
            id="path102"/><path
            d="m 4707.14,8396.6 -51.17,-88.2 c 0,0 100.26,-212.3 -137.59,-291.7 0,0 -102.34,-25.8 -111.08,45.2 -8.76,70.9 6.33,43 -8.51,143.2 -14.85,100.1 24.26,189.3 98.14,213.2 l 58.3,55.8 151.91,-77.5"
            style="fill:#ffb27d;fill-opacity:1;fill-rule:nonzero;stroke:none"
            id="path104"/><path
            d="m 4571.46,8372.5 c 97.08,-18.9 202.32,-11.3 202.32,-11.3 0,0 288.2,890.3 325.29,971.7 37.1,81.3 856.06,1043.9 856.06,1043.9 l -341.17,853.8 c 0,0 -885.8,-1479.6 -975.74,-1687.5 -148.63,-343.6 -200.21,-1113.9 -200.21,-1113.9 0,0 57.2,-41.9 133.45,-56.7"
            style="fill:#a8d29f;fill-opacity:1;fill-rule:nonzero;stroke:none"
            id="path106"/><path
            d="M 14912.5,8756.9 H 9419.2 l 1877.9,7597.5 h 5493.3 L 14912.5,8756.9"
            style="fill:#afcdfb;fill-opacity:1;fill-rule:nonzero;stroke:none"
            id="path108"/><path
            d="M 14092,9230.9 H 8598.67 l 1877.93,7597.5 h 5493.3 L 14092,9230.9"
            style="fill:#c0d8f9;fill-opacity:1;fill-rule:nonzero;stroke:none"
            id="path110"/><path
            d="M 13202.9,9772.7 H 7709.56 l 1877.92,7597.4 H 15080.8 L 13202.9,9772.7"
            style="fill:#d4e3f4;fill-opacity:1;fill-rule:nonzero;stroke:none"
            id="path112"/><path
            d="m 15858,16354.4 -1738,-7078 -4566.87,-45.5 4704.77,-103.5 1600.1,7227"
            style="fill:#699dee;fill-opacity:1;fill-rule:nonzero;stroke:none"
            id="path114"/><path
            d="m 14945.6,16828.4 -1651.2,-7010.3 -4566.86,-45.4 4644.36,-114.8 1573.7,7170.5"
            style="fill:#699dee;fill-opacity:1;fill-rule:nonzero;stroke:none"
            id="path116"/><path
            d="M 10914.2,14737.2 H 9377.96 l 480.93,1929.9 h 1536.31 l -481,-1929.9"
            style="fill:#e9f3fe;fill-opacity:1;fill-rule:nonzero;stroke:none"
            id="path118"/><path
            d="M 14421.5,16400.5 H 11669 l 67.7,266.6 h 2752.5 l -67.7,-266.6"
            style="fill:#afcdfb;fill-opacity:1;fill-rule:nonzero;stroke:none"
            id="path120"/><path
            d="m 14297.4,15853.1 h -2752.6 l 67.7,266.6 h 2752.6 l -67.7,-266.6"
            style="fill:#afcdfb;fill-opacity:1;fill-rule:nonzero;stroke:none"
            id="path122"/><path
            d="M 14167.6,15305.7 H 11415 l 67.8,266.6 h 2752.5 l -67.7,-266.6"
            style="fill:#afcdfb;fill-opacity:1;fill-rule:nonzero;stroke:none"
            id="path124"/><path
            d="m 14015.2,14758.3 h -2752.5 l 67.7,266.6 h 2752.5 l -67.7,-266.6"
            style="fill:#afcdfb;fill-opacity:1;fill-rule:nonzero;stroke:none"
            id="path126"/><path
            d="M 14015.2,14188.3 H 8976.44 l 67.72,266.7 h 5038.74 l -67.7,-266.7"
            style="fill:#afcdfb;fill-opacity:1;fill-rule:nonzero;stroke:none"
            id="path128"/><path
            d="M 13880.7,13618.4 H 8841.93 l 67.72,266.6 h 5038.75 l -67.7,-266.6"
            style="fill:#afcdfb;fill-opacity:1;fill-rule:nonzero;stroke:none"
            id="path130"/><path
            d="M 13694.5,12976.5 H 8655.7 l 67.72,266.6 h 5038.78 l -67.7,-266.6"
            style="fill:#afcdfb;fill-opacity:1;fill-rule:nonzero;stroke:none"
            id="path132"/><path
            d="M 13525.2,12422.3 H 8486.41 l 67.72,266.6 h 5038.77 l -67.7,-266.6"
            style="fill:#afcdfb;fill-opacity:1;fill-rule:nonzero;stroke:none"
            id="path134"/><g
            id="g136"><g
           id="g138"
           clip-path="url(#clipPath142)"><path
             d="m 11075.1,14432.1 c -1.6,-5 -3.7,-9.9 -6.4,-14.3 -30.3,-48.8 -529.7,-51.2 -586.7,-10.3 -25.5,18.4 -33.3,271 -34.1,544.8 -1,338.4 8.6,709.1 8.6,709.1 0,0 195.4,-90.7 205,-202.3 9.5,-111.6 -72.7,-782.3 -15.6,-823.3 57.1,-41 320.3,-46.3 408.1,-72.1 0,0 37.3,-80.3 21.1,-131.6"
             style="fill:#a8d2a0;fill-opacity:1;fill-rule:nonzero;stroke:none"
             id="path144" /><path
            d="m 10569.9,16430.8 c -34.2,35.6 -90,39 -126,41.5 10.4,8.2 28.9,9.4 28.9,9.4 -21.6,6.1 -73.8,-9.4 -73.8,-9.4 0,0 -174.5,119.9 -292.8,-114.3 0,0 17.3,16.6 40.5,35 -68.3,-134.7 -45.5,-354.8 107.2,-413.2 99.2,-38 666.2,86.4 316,451"
            style="fill:#163560;fill-opacity:1;fill-rule:nonzero;stroke:none"
            id="path146"/><path
            d="m 10464.2,15605.4 c 0.9,-0.5 -105.6,-39.4 -178,-9.2 -68.2,28.5 -102.4,126 -101.4,126.1 30.6,2.1 44.6,42 66.9,218.7 l 13.1,-4.4 221.5,-74.5 c 0,0 -14.4,-70.8 -23.3,-138.2 -7.5,-56.6 -11,-110.7 1.2,-118.5"
            style="fill:#e49963;fill-opacity:1;fill-rule:nonzero;stroke:none"
            id="path148"/><path
            d="m 10486.3,15862.1 c 0,0 -14.4,-70.8 -23.3,-138.2 -126.8,20 -179,144.8 -198.2,212.7 l 221.5,-74.5"
            style="fill:#d68d5d;fill-opacity:1;fill-rule:nonzero;stroke:none"
            id="path150"/><path
            d="m 10244.6,15964.4 c 0,0 -53.1,114 -57.4,206.2 -3.1,65.7 60.6,299.9 295.7,234.5 0,0 68.7,-15.9 128.3,-68.5 47.5,-41.9 112.7,-127.5 1.8,-324.6 l -30.9,-67.4 -337.5,19.8"
            style="fill:#163560;fill-opacity:1;fill-rule:nonzero;stroke:none"
            id="path152"/><path
            d="m 10520.5,15792.8 c 0,0 -301.6,34.1 -277.5,221.6 24.1,187.5 1.4,318.2 195,304.4 193.6,-13.8 221.8,-90.2 229,-154.7 7.1,-64.6 -67.4,-375.3 -146.5,-371.3"
            style="fill:#e49963;fill-opacity:1;fill-rule:nonzero;stroke:none"
            id="path154"/><path
            d="m 10540.4,15368.1 c -2.5,22.1 44.6,32.3 53.2,11.8 16,-38.3 14.3,-83.8 17.9,-120.6 10.4,-105.4 -31.4,-242.3 -31.4,-242.3 l -39.7,351.1"
            style="fill:#82b479;fill-opacity:1;fill-rule:nonzero;stroke:none"
            id="path156"/><path
            d="m 10671.5,16269.5 c -39.1,62.3 -75.8,54.6 -97.8,40.3 -52.4,105.6 -276.2,-8.3 -276.2,-8.3 -37.6,-132 -144.6,-196.4 -144.6,-196.4 0,0 50.5,-41 181.2,-24.9 102.8,12.7 193.4,145 227.4,200.8 15.8,-18.3 48.8,-59.9 55.5,-97.4 8.8,-49.7 2.8,-148.8 31.9,-149.2 0,0 81.4,141.4 22.6,235.1"
            style="fill:#163560;fill-opacity:1;fill-rule:nonzero;stroke:none"
            id="path158"/><path
            d="m 10468.4,15915.1 c 0,0 2.5,-24.5 62.2,-28.5 0,0 50.2,-3.4 52,23 0,0 -45.8,24.8 -114.2,5.5"
            style="fill:#ffffff;fill-opacity:1;fill-rule:nonzero;stroke:none"
            id="path160"/><path
            d="m 11075.1,14432.1 c -1.6,-5 -3.7,-9.9 -6.4,-14.3 -30.3,-48.8 -529.7,-51.2 -586.7,-10.3 -25.5,18.4 -33.8,332.3 36.5,603.1 16.7,-162.2 -13.9,-486.6 71.1,-513 96.2,-30.1 359.1,-30.7 485.5,-65.5"
            style="fill:#82b479;fill-opacity:1;fill-rule:nonzero;stroke:none"
            id="path162"/><path
            d="m 10596.9,15002 c -198.2,-572.2 -107.9,-675.8 -178.7,-725.3 l -59.9,-17.5 c -73.5,-48.7 -66.1,20.9 -285.4,-42.1 -104.51,-30.1 -238.67,-70.5 -353.78,-89.7 -43.35,-7.2 -83.98,-11.5 -119.33,-11.1 -67.74,0.9 -116.03,18.9 -126.42,66.1 -30.21,137.1 241.4,455.5 215.53,700.2 -0.21,2 -0.41,4.2 -0.57,6.3 -1.42,21.3 0.92,45.2 6.43,71.1 27.74,131 136.3,312.6 244.25,465.7 119.19,168.9 237.49,303 245.69,296.6 232.9,-182.4 271.8,-60.9 271.8,-60.9 0,0 208,-464.2 140.4,-659.4"
            style="fill:#a8d2a0;fill-opacity:1;fill-rule:nonzero;stroke:none"
            id="path164"/><path
            d="m 10379.4,14264.9 v 0 c -73.4,-48.7 -87.2,15.2 -306.5,-47.8 -104.51,-30.1 -238.67,-70.5 -353.78,-89.7 -57.87,-2.6 -101.13,-5.8 -119.33,-11.1 -67.74,0.9 -116.03,18.9 -126.42,66.1 -30.21,137.1 241.4,455.5 215.53,700.2 -0.21,2 -0.41,4.2 -0.57,6.3 -1.83,24 0.55,47.5 6.43,71.1 24.98,99 113.13,198.6 217.54,346.7 48.39,-66.5 478.3,-52.4 302.9,-624.7 -53.8,-175.4 156.1,-274.5 164.2,-417.1"
            style="fill:#82b479;fill-opacity:1;fill-rule:nonzero;stroke:none"
            id="path166"/><path
            d="m 10184.8,15722.3 c 0,0 -342.96,39.8 -425.72,-117.4 -82.77,-157.2 -139.13,-740.1 -72.11,-926.4 67.03,-186.2 546.13,-488.2 601.53,-505 55.4,-16.8 102.1,65.9 101,75.7 -1.2,9.7 -478.46,510.7 -470.29,555.2 8.18,44.5 265.59,917.9 265.59,917.9"
            style="fill:#a8d2a0;fill-opacity:1;fill-rule:nonzero;stroke:none"
            id="path168"/></g></g><path
            d="m 21640.2,4233.2 -122.4,-515.9 -183.5,1.1 -6.7,514.8 h 312.6"
            style="fill:#e49963;fill-opacity:1;fill-rule:nonzero;stroke:none"
            id="path170"/><path
            d="m 20097,4211.2 -348.5,-493.9 -135.8,174.4 209.7,387.4 274.6,-67.9"
            style="fill:#e49963;fill-opacity:1;fill-rule:nonzero;stroke:none"
            id="path172"/><path
            d="m 21003.1,11012.1 c 63.3,36 139.2,39.9 192.3,36.8 -13.7,14.1 -40.6,19.2 -40.6,19.2 32.9,4.9 106.4,-27.7 106.4,-27.7 458,176.4 529.9,-497.8 520.3,-654.5 -9.6,-156.6 153.9,-207.8 392.1,-331.2 454.6,-235.5 494.5,-550.8 494.5,-550.8 -3.5,-2.1 -7.2,-4.5 -11.1,-7.2 -22.6,38.2 -69,110 -108.2,120.8 1.5,-3.5 46.3,-98.8 63,-153.4 -134.1,-102 -385,-328 -559.8,-488.3 0.8,31.3 -0.5,75.8 -11.9,99.3 l -21.6,-130.1 c -93.6,-86 -158.1,-146.5 -158.1,-146.5 11.5,126.6 -572.5,794.6 -877.2,994.6 -74.2,109.2 -100.6,302.2 -102.6,317.3 12.8,-152.9 39,-238.7 62.4,-287 -258,237.5 -107.8,1093.3 60.1,1188.7"
            style="fill:#163560;fill-opacity:1;fill-rule:nonzero;stroke:none"
            id="path174"/><path
            d="m 21001.2,9783.2 c -1.5,-0.7 147.1,-77.9 258.9,-47.3 105.2,28.7 173.9,165 172.5,165.4 -44.6,8.8 -57.4,70 -56.4,333 l -20.2,-3.9 -338.6,-67.1 c 0,0 7.7,-106.5 8,-206.9 0.2,-84.3 -4.9,-164.2 -24.2,-173.2"
            style="fill:#e49963;fill-opacity:1;fill-rule:nonzero;stroke:none"
            id="path176"/><path
            d="m 21017.4,10163.3 c 0,0 7.7,-106.5 8,-206.9 189.4,5.3 289.6,178.2 330.6,274 l -338.6,-67.1"
            style="fill:#d68d5d;fill-opacity:1;fill-rule:nonzero;stroke:none"
            id="path178"/><path
            d="m 21391,10267.2 c 0,0 99.3,156.9 123.1,291.1 17,95.7 -31.8,450.7 -388.5,399.6 0,0 -103.6,-10.2 -201,-76 -77.5,-52.3 -189.2,-165.2 -64.2,-475 l 32.4,-104.7 498.2,-35"
            style="fill:#163560;fill-opacity:1;fill-rule:nonzero;stroke:none"
            id="path180"/><path
            d="m 19668,4027.1 179.4,-5.5 194.3,-5.9 c 0,0 448.7,499.6 700.4,1300.4 5.9,18.6 12.1,37.5 18.6,56.5 137.8,401.7 423.3,905.9 573.8,1362.2 24,72.7 45.5,141.1 64.8,205.9 6.2,20.7 12.2,41.1 17.9,61.1 110.9,385.4 143,638.4 172.6,908.7 l -1086.6,-8.7 c 0,0 -175.5,-1845.8 -835.2,-3874.7"
            style="fill:#2b478b;fill-opacity:1;fill-rule:nonzero;stroke:none"
            id="path182"/><path
            d="m 20655.3,8526.2 c 2.7,-517.1 -75.9,-739 -75.9,-739 0,0 465.3,-236.4 1018.3,-62.4 6.5,2.1 415.9,84.2 415.9,84.2 -9.3,21 -122.2,378.7 -131.2,397.9 -116.8,250.7 -132.8,372.3 -146.7,449.4 -25.7,143.9 -26.2,292.8 -13.4,433.2 33.7,371.7 134.1,680.3 134.1,680.3 -150.7,34.3 -291.8,94.5 -448.6,153.3 -36.1,-44.9 -146.4,-91.9 -242,-89.7 -110.2,2.4 -145.9,49.6 -140.2,101 -117.4,-65.3 -211,-127 -211,-127 -99.8,-173.3 -302.1,-341.5 -316.8,-607.4 -3.6,-65.3 157.4,-659.3 157.5,-673.8"
            style="fill:#e7f1fd;fill-opacity:1;fill-rule:nonzero;stroke:none"
            id="path184"/><path
            d="m 20024.4,9294.4 c 159.5,186.3 572.8,590.5 999.3,640 l -368,-716.9 c 0,0 -20.7,-122.9 -129.7,-194.5 -266.9,-175.5 -606.4,-253 -606.4,-253 0,0 -229.8,100.3 -544,330.5 -98.7,72.3 -272,347.9 -272,347.9 l 46.8,156.5 c 0,0 294.2,-164.6 399.3,-212 59.9,-27.1 197.8,-91.6 295,-137.2 61.8,-29.1 135.3,-13.2 179.7,38.7"
            style="fill:#699dee;fill-opacity:1;fill-rule:nonzero;stroke:none"
            id="path186"/><path
            d="m 20954.2,10068.3 c 0,0 448.2,-7.4 448.5,271.8 0.3,279.2 58.4,466.3 -227.8,482.9 -286.2,16.5 -341.9,-90 -364.7,-183.2 -22.7,-93.1 27.4,-562.4 144,-571.5"
            style="fill:#e49963;fill-opacity:1;fill-rule:nonzero;stroke:none"
            id="path188"/><path
            d="m 20970.8,10829.8 c 0,0 122.7,-327.6 311,-376 188.4,-48.4 270.1,2 270.1,2 0,0 -144.5,114.8 -174.4,315.1 0,0 -314.2,214.8 -406.7,58.9"
            style="fill:#163560;fill-opacity:1;fill-rule:nonzero;stroke:none"
            id="path190"/><path
            d="m 21001.2,10803.2 c 0,0 -91.7,-73.1 -114,-144.2 -22.4,-71.1 -32.4,-217.5 -75.1,-212.5 0,0 -92.5,222.6 11.5,348.6 110.2,133.6 177.6,8.1 177.6,8.1"
            style="fill:#163560;fill-opacity:1;fill-rule:nonzero;stroke:none"
            id="path192"/><path
            d="m 19150.4,9604.9 c 0,0 -63.2,227.7 -313.6,195.5 -28.7,-9 -112.7,-42.5 -59,-132.3 39.5,-66.3 56.7,-32.1 118.9,-121.2 62.2,-89 129.8,-109.1 206.9,-98.5 l 46.8,156.5"
            style="fill:#e49963;fill-opacity:1;fill-rule:nonzero;stroke:none"
            id="path194"/><path
            d="m 21523.9,3746.2 c 0,0 -14.8,-102.2 23.4,-211.5 0,0 30,-136.8 -104.7,-139.4 -134.8,-2.5 -167.8,10.2 -152.6,94.1 15.3,83.9 44.3,229 44.3,229 l 189.6,27.8"
            style="fill:#e49963;fill-opacity:1;fill-rule:nonzero;stroke:none"
            id="path196"/><path
            d="m 21277.3,3336.9 c 0,0 2.9,-1.8 8.5,-4.5 h 263.7 c 5.1,2.7 7.5,4.5 7.5,4.5 15.2,68.6 -9.7,197.8 -9.7,197.8 -152.6,-139.8 -248.1,3.5 -248.1,3.5 -24.8,-59.8 -21.9,-201.3 -21.9,-201.3"
            style="fill:#d86713;fill-opacity:1;fill-rule:nonzero;stroke:none"
            id="path198"/><path
            d="m 19288,3475.7 c 0,0 248.4,275.7 324.7,416 l 184.7,-94.6 -412.9,-387.8 -96.6,12.7 0.1,53.7"
            style="fill:#e49963;fill-opacity:1;fill-rule:nonzero;stroke:none"
            id="path200"/><path
            d="m 19133.8,3332.4 h 340 c 32.7,24.5 63.3,81.1 101.3,157.1 20.2,40.5 65.8,62.9 112.5,75.2 V 3335 h 70.5 l 66.8,244.1 c 43.9,80.9 3.5,154.2 -27.5,218 -36,0.1 -132.8,-24.5 -316.3,-231.3 -60.4,-67.9 -127,-92.2 -193.1,-90.1 -1,-0.6 -1.9,-1.1 -2.7,-1.4 -110.8,-49.8 -142.4,-111.7 -151.5,-141.9"
            style="fill:#d86713;fill-opacity:1;fill-rule:nonzero;stroke:none"
            id="path202"/><path
            d="m 21025.6,9934.4 c 0,0 -259.3,-640.7 -267,-770.3 -7.6,-129.7 -30.5,-2120.4 -30.5,-2120.4 0,0 15.3,-91.5 -160.1,-53.4 -175.5,38.1 -221.2,76.3 -221.2,76.3 0,0 167.8,1228 122,1655.1 -45.8,427.1 350.9,1123.7 350.9,1123.7 l 205.9,89"
            style="fill:#699dee;fill-opacity:1;fill-rule:nonzero;stroke:none"
            id="path204"/><path
            d="m 19847.4,4021.6 194.3,-5.9 c 0,0 448.7,499.6 700.4,1300.4 5.9,18.6 12.1,37.5 18.6,56.5 137.8,401.7 423.3,905.9 573.8,1362.2 24,72.7 45.5,141.1 64.8,205.9 6.2,20.7 12.2,41.1 17.9,61.1 l -160,121.5 c 0,0 -480.5,-778 -629.2,-1510.2 -129.2,-635.9 -646.6,-1401.2 -780.6,-1591.5"
            style="fill:#233862;fill-opacity:1;fill-rule:nonzero;stroke:none"
            id="path206"/><path
            d="m 21240.5,5545 c -2.8,-356.1 15.2,-1174.7 61.6,-1513.5 h 172.1 c 95.1,0 142.5,1.3 142.5,1.3 116.4,589.2 199.1,1076.8 259.4,1496.9 49.4,344.7 93.3,640.3 127.1,894.7 34,256.1 57.7,470.5 66.1,651.6 1.3,28.6 2.3,56.3 2.9,83.3 0.5,27 0.7,53.4 0.4,78.9 l -938.9,91.5 c 11.8,-623.8 108.3,-1577.8 106.8,-1784.7"
            style="fill:#2b478b;fill-opacity:1;fill-rule:nonzero;stroke:none"
            id="path208"/><path
            d="m 21474.2,4031.5 c 95.1,0 142.5,1.3 142.5,1.3 116.4,589.2 199.1,1076.8 259.4,1496.9 49.4,344.7 93.3,640.3 127.1,894.7 34,256.1 57.7,470.5 66.1,651.6 l -344.5,-202.6 c 0,0 219.9,-77.6 136,-664.9 -83.9,-587.3 -269.8,-2093.9 -386.6,-2177"
            style="fill:#233862;fill-opacity:1;fill-rule:nonzero;stroke:none"
            id="path210"/><path
            d="m 21429.8,7081.8 c 0,0 66.2,-238.9 295,-208.4 228.8,30.5 554.2,167.8 554.2,167.8 0,0 -97.8,309 -219.4,714.9 -147.2,491.4 -329.4,1124.9 -415.3,1524.5 -24.1,112 -40.5,205.5 -46.7,272.5 l -189.8,368.3 c 0,0 -283,-635.3 -298.3,-795.5 -15.3,-160.1 320.3,-2044.1 320.3,-2044.1"
            style="fill:#699dee;fill-opacity:1;fill-rule:nonzero;stroke:none"
            id="path212"/><path
            d="m 21440,8790.3 c 10.2,-259.3 71.2,-762.7 615.3,-1032.2 1.4,-0.6 2.9,-1.4 4.3,-2 -147.2,491.4 -329.4,1124.9 -415.3,1524.5 -99.9,-149.3 -209.9,-347.5 -204.3,-490.3"
            style="fill:#4a75cb;fill-opacity:1;fill-rule:nonzero;stroke:none"
            id="path214"/><path
            d="m 19062.7,10222 -171.5,-171.6 -682.4,682.4 171.6,171.6 682.3,-682.4"
            style="fill:#2b478b;fill-opacity:1;fill-rule:nonzero;stroke:none"
            id="path216"/><path
            d="m 22650.8,6522.3 -59.9,-59.9 c -117.8,-117.8 -308.7,-117.8 -426.5,0 l -3339.1,3339.1 c -117.8,117.8 -117.8,308.7 0,426.5 l 59.9,59.9 c 117.7,117.7 308.7,117.7 426.4,0 l 3339.2,-3339.2 c 117.7,-117.7 117.7,-308.7 0,-426.4"
            style="fill:#c65447;fill-opacity:1;fill-rule:nonzero;stroke:none"
            id="path218"/><path
            d="m 18067.3,11045.9 c -991.7,-991.8 -2599.6,-991.8 -3591.3,0 -991.7,991.7 -991.7,2599.6 0,3591.3 991.7,991.7 2599.6,991.7 3591.3,0 991.7,-991.7 991.7,-2599.6 0,-3591.3 m -3813.6,3813.6 c -1114.5,-1114.5 -1114.5,-2921.4 0,-4035.9 1114.5,-1114.5 2921.4,-1114.5 4035.9,0 1114.5,1114.5 1114.5,2921.4 0,4035.9 -1114.5,1114.4 -2921.4,1114.4 -4035.9,0"
            style="fill:#c65447;fill-opacity:1;fill-rule:nonzero;stroke:none"
            id="path220"/><path
            d="m 21658.3,9149.8 -250.5,771.6 c 0.7,-0.3 316.4,-94 475.3,-174.2 0,0 99.2,-128 160.7,-423.3 0,0 64.9,-709 -80,-968.3 0,0 -457.7,-91.5 -1189.9,160.2 v 167.8 c 0,0 800.9,-42 964.9,-61.1 l -80.5,527.3"
            style="fill:#e49963;fill-opacity:1;fill-rule:nonzero;stroke:none"
            id="path222"/><path
            d="m 21407.8,9921.4 c 0,0 464.4,-32.7 576.3,-281.9 111.9,-249.1 147.5,-1078 5.1,-1322 0,0 -196,-55.9 -542.7,9 -4.3,0.7 -8.6,1.6 -12.8,2.4 0,0 -110.6,270.8 -11.5,324.1 0,0 292.4,-15.2 261.9,81.4 -30.5,96.6 -276.3,1187 -276.3,1187"
            style="fill:#699dee;fill-opacity:1;fill-rule:nonzero;stroke:none"
            id="path224"/><path
            d="m 20856,8638.9 c 0,0 -63.8,77.3 -77.4,156.3 -13.6,78.9 -55.8,137.5 -166,151.9 -110.1,14.5 -157.4,16.1 -157.1,-15 0.2,-31 89.9,-247.7 247.9,-377.1 158.1,-129.5 152.6,83.9 152.6,83.9"
            style="fill:#e49963;fill-opacity:1;fill-rule:nonzero;stroke:none"
            id="path226"/><path
            d="m 14778,12006.4 168.1,680.2 14.9,14.8 -166.6,-678.6 -16.4,-16.4"
            style="fill:#cfe1fd;fill-opacity:1;fill-rule:nonzero;stroke:none"
            id="path228"/><path
            d="m 17613.8,14842.2 h -512.1 l 282.8,282.7 c 111.2,-54.2 219.4,-117.1 323.4,-188.6 l -94.1,-94.1"
            style="fill:#f3f7fb;fill-opacity:1;fill-rule:nonzero;stroke:none"
            id="path230"/><path
            d="m 17205.9,14434.3 h -512.1 l 407.9,407.9 h 512.1 l -407.9,-407.9"
            style="fill:#f7c895;fill-opacity:1;fill-rule:nonzero;stroke:none"
            id="path232"/><path
            d="m 16023.6,13252 91,368.1 h 277.1 l -368.1,-368.1"
            style="fill:#f2f8fe;fill-opacity:1;fill-rule:nonzero;stroke:none"
            id="path234"/><path
            d="m 16391.7,13620.1 h -277.1 l 77.1,312.1 502.1,502.1 h 512.1 l -814.2,-814.2"
            style="fill:#cbe4c5;fill-opacity:1;fill-rule:nonzero;stroke:none"
            id="path236"/><path
            d="m 14928.7,12157.1 145.6,657.6 1117.4,1117.5 -77.1,-312.1 -91,-368.1 -1094.9,-1094.9"
            style="fill:#cfe1fd;fill-opacity:1;fill-rule:nonzero;stroke:none"
            id="path238"/><path
            d="m 14185,11413.4 c -70.8,102.3 -134.3,209.9 -189.8,322.2 l 950.9,951 -168.1,-680.2 -593,-593"
            style="fill:#d9e8fb;fill-opacity:1;fill-rule:nonzero;stroke:none"
            id="path240"/><path
            d="m 14794.4,12022.8 166.6,678.6 113.3,113.3 -145.6,-657.6 -134.3,-134.3"
            style="fill:#a5c4f5;fill-opacity:1;fill-rule:nonzero;stroke:none"
            id="path242"/><path
            d="m 17707.9,14936.3 c -104,71.5 -212.2,134.4 -323.4,188.6 l 11.7,11.7 c 112.3,-55.5 219.9,-119 322.1,-189.9 l -10.4,-10.4"
            style="fill:#dd9891;fill-opacity:1;fill-rule:nonzero;stroke:none"
            id="path244"/><path
            d="m 15055.9,13130.5 533.3,2157.5 c 2.4,0.7 5,1.4 7.5,2.1 l -526.9,-2145.7 -13.9,-13.9"
            style="fill:#cfe1fd;fill-opacity:1;fill-rule:nonzero;stroke:none"
            id="path246"/><path
            d="m 16767.5,14842.2 h -350.8 l 129.5,524 c 205.2,-22.2 408,-69.3 604,-141.4 l -382.7,-382.6"
            style="fill:#f3f7fb;fill-opacity:1;fill-rule:nonzero;stroke:none"
            id="path248"/><path
            d="m 16359.6,14434.3 h -43.8 l 100.9,407.9 h 350.8 l -407.9,-407.9"
            style="fill:#f7c895;fill-opacity:1;fill-rule:nonzero;stroke:none"
            id="path250"/><path
            d="m 16301.5,14376.1 14.3,58.2 h 43.8 l -58.1,-58.2"
            style="fill:#cbe4c5;fill-opacity:1;fill-rule:nonzero;stroke:none"
            id="path252"/><path
            d="m 15169.3,13244 454.7,2053.4 c 212,55.7 429.8,83.6 647.6,83.6 91.7,0 183.4,-5 274.6,-14.8 l -129.5,-524 -100.9,-407.9 -14.3,-58.2 -1132.2,-1132.1"
            style="fill:#cfe1fd;fill-opacity:1;fill-rule:nonzero;stroke:none"
            id="path254"/><path
            d="m 13894.2,11968.9 c -3.2,8.5 -6.3,17.2 -9.5,25.8 l 576.8,2627.8 c 4.7,4.9 9.6,9.8 14.5,14.7 320.5,320.5 705.4,537.5 1113.2,650.8 l -533.3,-2157.5 -1161.7,-1161.6 m -54.8,163.3 c -10,33.7 -19.4,67.7 -28.1,102 l 569,2302 c 11.3,12.5 22.6,24.9 34.2,37.3 l -575.1,-2441.3"
            style="fill:#d9e8fb;fill-opacity:1;fill-rule:nonzero;stroke:none"
            id="path256"/><path
            d="m 13811.3,12234.2 c -50.5,199.7 -77.4,408.8 -77.4,624.2 0,78 3.5,155.1 10.4,231.3 17.4,178.8 53.8,356.1 109.1,528.7 h 27.3 l 57.7,227.3 c 106.3,247 253.6,480.7 441.9,690.5 l -569,-2302"
            style="fill:#e5eef8;fill-opacity:1;fill-rule:nonzero;stroke:none"
            id="path258"/><path
            d="m 15069.8,13144.4 526.9,2145.7 c 9.1,2.5 18.2,4.9 27.3,7.3 l -454.7,-2053.4 -99.5,-99.6"
            style="fill:#a5c4f5;fill-opacity:1;fill-rule:nonzero;stroke:none"
            id="path260"/><path
            d="m 13884.7,11994.7 c -16.3,45.2 -31.4,91.1 -45.3,137.5 l 575.1,2441.3 c 15.4,16.5 31,32.8 47,49 l -576.8,-2627.8"
            style="fill:#a5c4f5;fill-opacity:1;fill-rule:nonzero;stroke:none"
            id="path262"/><path
            d="m 13880.7,13618.4 h -27.3 c 24.6,76.8 52.9,152.7 85,227.3 l -57.7,-227.3"
            style="fill:#cfe1fd;fill-opacity:1;fill-rule:nonzero;stroke:none"
            id="path264"/><path
            d="m 13744.3,13089.7 c 116.8,1294.1 1204.5,2308.2 2529,2308.2 313,0 612.7,-56.8 889.6,-160.3 l -12.7,-12.8 c -196,72.1 -398.8,119.2 -604,141.4 -91.2,9.8 -182.9,14.8 -274.6,14.8 -217.8,0 -435.6,-27.9 -647.6,-83.6 -9.1,-2.4 -18.2,-4.8 -27.3,-7.3 -2.5,-0.7 -5.1,-1.4 -7.5,-2.1 -407.8,-113.3 -792.7,-330.3 -1113.2,-650.8 -4.9,-4.9 -9.8,-9.8 -14.5,-14.7 -16,-16.2 -31.6,-32.5 -47,-49 -11.6,-12.4 -22.9,-24.8 -34.2,-37.3 -188.3,-209.8 -335.6,-443.5 -441.9,-690.5 -32.1,-74.6 -60.4,-150.5 -85,-227.3 -55.3,-172.6 -91.7,-349.9 -109.1,-528.7"
            style="fill:#dd9891;fill-opacity:1;fill-rule:nonzero;stroke:none"
            id="path266"/><path
            d="m 16273.3,10319 c -328.7,0 -642.8,62.6 -931.1,176.3 l 91.9,371.6 2753.1,2753.2 h 502.1 c 108.5,-337.7 144.5,-693.7 108,-1043.4 -140.2,-1269.8 -1216.7,-2257.7 -2524,-2257.7"
            style="fill:#f2f8fe;fill-opacity:1;fill-rule:nonzero;stroke:none"
            id="path268"/><path
            d="m 18689.3,13620.1 h -502.1 l 356.7,356.7 c 57.9,-115.8 106.4,-235.1 145.4,-356.7"
            style="fill:#cbe4c5;fill-opacity:1;fill-rule:nonzero;stroke:none"
            id="path270"/><path
            d="m 15342.2,10495.3 c -66,26.1 -130.6,54.8 -193.7,86 l 285.6,285.6 -91.9,-371.6"
            style="fill:#cfe1fd;fill-opacity:1;fill-rule:nonzero;stroke:none"
            id="path272"/><path
            d="m 18797.3,12576.7 c 36.5,349.7 0.5,705.7 -108,1043.4 -39,121.6 -87.5,240.9 -145.4,356.7 l 6.6,6.5 c 167.8,-339.1 262.3,-720.9 262.3,-1124.9 0,-95.2 -5.3,-189.2 -15.5,-281.7"
            style="fill:#dd9891;fill-opacity:1;fill-rule:nonzero;stroke:none"
            id="path274"/><path
            d="m 2113,3286.4 h 25774 c 12.7,0 23,10.3 23,23 0,12.6 -10.3,23 -23,23 H 2113 c -12.65,0 -23,-10.4 -23,-23 0,-12.7 10.35,-23 23,-23"
            style="fill:#283250;fill-opacity:1;fill-rule:nonzero;stroke:none"
            id="path276"/></g></g></svg>
