<?xml version="1.0" encoding="UTF-8" standalone="no"?>
<svg
        xmlns:dc="http://purl.org/dc/elements/1.1/"
        xmlns:cc="http://creativecommons.org/ns#"
        xmlns:rdf="http://www.w3.org/1999/02/22-rdf-syntax-ns#"
        xmlns:svg="http://www.w3.org/2000/svg"
        xmlns="http://www.w3.org/2000/svg"
        xmlns:sodipodi="http://sodipodi.sourceforge.net/DTD/sodipodi-0.dtd"
        xmlns:inkscape="http://www.inkscape.org/namespaces/inkscape"
        version="1.1"
        id="svg2"
        xml:space="preserve"
        width="666.66669"
        height="666.66669"
        viewBox="0 0 666.66669 666.66669"><defs
     id="defs6"><clipPath
       clipPathUnits="userSpaceOnUse"
       id="clipPath110"><path
         d="m 1760.03,994.941 c 0,-181.25 -143.23,-328.171 -319.91,-328.171 -176.68,0 -319.91,146.921 -319.91,328.171 0,181.249 143.23,328.179 319.91,328.179 176.68,0 319.91,-146.93 319.91,-328.179 z"
         id="path108" /></clipPath><clipPath
        clipPathUnits="userSpaceOnUse"
        id="clipPath184"><path
         d="m 3779.56,4026.46 c 58.28,-127.51 135.36,-217.24 172.16,-200.42 36.8,16.82 19.39,133.82 -38.89,261.32 -58.29,127.52 -135.37,217.25 -172.16,200.43 -36.8,-16.82 -19.39,-133.83 38.89,-261.33 z"
         id="path182" /></clipPath><clipPath
        clipPathUnits="userSpaceOnUse"
        id="clipPath272"><path
         d="M 2294.98,719.039 3632.4,1180.87 3035.9,2927.9 2317.92,3598.34 1005.2,3177.25 Z"
         id="path270" /></clipPath></defs>
    <g
            id="g10"
            inkscape:groupmode="layer"
            inkscape:label="ink_ext_XXXXXX"
            transform="matrix(1.3333333,0,0,-1.3333333,0,666.66667)"><g
       id="g12"
       transform="scale(0.1)"><path
         d="M 0,5000 V 0 H 5000 V 5000 H 0"
         style="fill:#ffffff;fill-opacity:1;fill-rule:nonzero;stroke:none"
         id="path14" /><path
            d="m 858.875,2296.64 c -14.797,-4.46 -25.668,-25.35 -25.668,-25.35 0,0 -10.965,20.71 -25.777,24.93 -42.895,12.21 -62.067,-26.48 -45.645,-62.19 15.844,-34.44 71.668,-75.88 71.668,-75.88 0,0 55.641,42.37 71.336,77.07 16.27,35.98 -3.07,74.35 -45.914,61.42"
            style="fill:#fbceca;fill-opacity:1;fill-rule:nonzero;stroke:none"
            id="path16"/><path
            d="m 657.027,2337.05 c -9.457,-2.85 -16.398,-16.2 -16.398,-16.2 0,0 -7.008,13.23 -16.477,15.93 -27.41,7.8 -39.664,-16.92 -29.168,-39.74 10.125,-22.01 45.801,-48.5 45.801,-48.5 0,0 35.555,27.08 45.586,49.26 10.395,22.99 -1.965,47.51 -29.344,39.25"
            style="fill:#fbceca;fill-opacity:1;fill-rule:nonzero;stroke:none"
            id="path18"/><path
            d="m 785.648,2536.5 c -14.796,-4.46 -25.664,-25.35 -25.664,-25.35 0,0 -10.968,20.71 -25.777,24.92 -42.898,12.22 -62.07,-26.47 -45.644,-62.17 15.839,-34.45 71.664,-75.89 71.664,-75.89 0,0 55.64,42.37 71.336,77.08 16.265,35.97 -3.071,74.34 -45.915,61.41"
            style="fill:#fbceca;fill-opacity:1;fill-rule:nonzero;stroke:none"
            id="path20"/><path
            d="m 918.758,1773.6 c 72.289,-59.34 81.882,-166.76 21.43,-239.94 -60.454,-73.18 -168.067,-84.4 -240.352,-25.06 -72.289,59.34 -81.879,166.77 -21.43,239.94 60.453,73.19 168.067,84.4 240.352,25.06 z m 20.195,87.5 c -14.25,8.27 -29.094,15 -44.324,20.2 -0.102,-1.47 -0.063,-2.91 -0.32,-4.4 -3.981,-22.83 -25.668,-38.39 -48.446,-34.76 -22.785,3.63 -38.023,25.09 -34.043,47.92 0.278,1.61 0.84,3.09 1.289,4.63 -16.425,-0.02 -32.847,-1.62 -49.007,-4.79 0.691,-1.38 1.492,-2.69 2.039,-4.19 7.945,-21.58 -3.219,-45.79 -24.938,-54.06 -21.715,-8.27 -45.762,2.53 -53.703,24.11 -0.621,1.7 -0.926,3.42 -1.316,5.14 -14.305,-8.16 -27.957,-17.78 -40.746,-28.82 1.46,-0.92 2.964,-1.76 4.332,-2.88 17.738,-14.56 20.089,-40.92 5.257,-58.88 -14.836,-17.96 -41.242,-20.71 -58.98,-6.15 -1.551,1.28 -2.84,2.75 -4.16,4.2 -8.739,-14.65 -15.883,-29.89 -21.442,-45.52 1.969,-0.04 3.934,-0.03 5.93,-0.34 22.781,-3.63 38.023,-25.09 34.043,-47.92 -3.977,-22.83 -25.668,-38.4 -48.445,-34.77 -2.168,0.36 -4.196,1 -6.219,1.65 -0.274,-16.82 1.09,-33.62 4.129,-50.12 1.847,1.04 3.699,2.1 5.742,2.87 21.719,8.27 45.762,-2.53 53.703,-24.11 7.949,-21.59 -3.219,-45.8 -24.93,-54.07 -2.199,-0.83 -4.429,-1.34 -6.652,-1.8 8.125,-14.46 17.774,-28.23 28.934,-41.07 1.121,1.9 2.269,3.79 3.718,5.54 14.832,17.96 41.243,20.71 58.977,6.15 17.742,-14.56 20.098,-40.92 5.262,-58.87 -1.512,-1.84 -3.219,-3.4 -4.949,-4.92 14.718,-8.56 30.082,-15.45 45.851,-20.74 0.035,2.19 0.09,4.39 0.481,6.61 3.972,22.84 25.668,38.4 48.445,34.77 22.777,-3.63 38.023,-25.09 34.043,-47.92 -0.391,-2.25 -1.078,-4.35 -1.797,-6.44 16.832,0.09 33.648,1.84 50.184,5.23 -0.985,1.79 -1.985,3.57 -2.711,5.54 -7.946,21.6 3.222,45.81 24.933,54.08 21.723,8.27 45.766,-2.53 53.707,-24.12 0.731,-1.97 1.125,-3.98 1.535,-5.97 14.375,8.34 28.071,18.15 40.879,29.43 -1.59,0.97 -3.203,1.89 -4.683,3.11 -17.739,14.56 -20.094,40.92 -5.258,58.88 14.832,17.95 41.243,20.7 58.983,6.14 1.44,-1.18 2.62,-2.56 3.86,-3.89 8.52,14.58 15.48,29.74 20.87,45.26 -1.68,0.07 -3.36,0.02 -5.06,0.3 -22.78,3.63 -38.02,25.09 -34.04,47.92 3.97,22.83 25.67,38.4 48.45,34.76 1.67,-0.27 3.21,-0.82 4.8,-1.28 0.12,16.44 -1.33,32.83 -4.36,48.93 -1.36,-0.69 -2.64,-1.49 -4.1,-2.04 -21.71,-8.27 -45.76,2.53 -53.71,24.11 -7.939,21.59 3.22,45.8 24.94,54.07 1.49,0.57 3,0.82 4.51,1.21 -7.95,13.97 -17.34,27.26 -28.12,39.68 -0.79,-1.19 -1.46,-2.44 -2.39,-3.56 -14.832,-17.96 -41.242,-20.72 -58.981,-6.16 -17.738,14.56 -20.086,40.93 -5.258,58.88 0.997,1.21 2.168,2.17 3.262,3.24"
            style="fill:#fab81d;fill-opacity:1;fill-rule:nonzero;stroke:none"
            id="path22"/><path
            d="m 731.684,1744.33 c 57.629,43.72 139.394,32.96 182.265,-24.01 42.871,-56.96 30.864,-138.87 -26.761,-182.61 -57.633,-43.73 -139.395,-32.96 -182.266,24 -42.879,56.96 -30.867,138.89 26.762,182.62 z m -77.825,-221.36 c 63.817,-84.8 185.528,-100.8 271.309,-35.71 85.782,65.08 103.652,187.02 39.836,271.8 -63.816,84.79 -185.52,100.82 -271.301,35.73 -85.781,-65.09 -103.656,-187.04 -39.844,-271.82"
            style="fill:#fab81d;fill-opacity:1;fill-rule:nonzero;stroke:none"
            id="path24"/><path
            d="m 717.906,1762.63 c 67.844,51.47 164.09,38.8 214.559,-28.26 50.469,-67.06 36.336,-163.48 -31.504,-214.96 -67.836,-51.47 -164.094,-38.8 -214.563,28.25 -50.468,67.05 -36.328,163.49 31.508,214.97 z"
            style="fill:none;stroke:#202021;stroke-width:5;stroke-linecap:round;stroke-linejoin:miter;stroke-miterlimit:10;stroke-dasharray:none;stroke-opacity:1"
            id="path26"/><path
            d="m 1347.51,1853.04 c 57.94,-47.56 65.63,-133.67 17.17,-192.32 -48.45,-58.65 -134.7,-67.63 -192.64,-20.08 -57.94,47.56 -65.62,133.67 -17.17,192.32 48.45,58.65 134.7,67.65 192.64,20.08 z m 16.18,70.12 c -11.42,6.63 -23.31,12.04 -35.52,16.2 -0.08,-1.18 -0.05,-2.34 -0.26,-3.52 -3.19,-18.3 -20.57,-30.78 -38.83,-27.87 -18.26,2.91 -30.47,20.11 -27.28,38.41 0.22,1.29 0.67,2.48 1.04,3.71 -13.17,-0.02 -26.33,-1.3 -39.29,-3.84 0.56,-1.11 1.2,-2.16 1.64,-3.35 6.37,-17.3 -2.58,-36.71 -19.99,-43.34 -17.4,-6.62 -36.68,2.03 -43.04,19.34 -0.5,1.34 -0.74,2.73 -1.06,4.11 -11.46,-6.55 -22.41,-14.25 -32.65,-23.11 1.17,-0.73 2.37,-1.39 3.47,-2.3 14.22,-11.67 16.1,-32.8 4.21,-47.19 -11.89,-14.39 -33.05,-16.6 -47.27,-4.93 -1.24,1.02 -2.27,2.21 -3.33,3.37 -7.01,-11.74 -12.73,-23.97 -17.19,-36.49 1.58,-0.03 3.15,-0.02 4.75,-0.27 18.26,-2.91 30.48,-20.11 27.29,-38.41 -3.19,-18.3 -20.58,-30.77 -38.83,-27.86 -1.74,0.27 -3.36,0.79 -4.98,1.32 -0.22,-13.49 0.87,-26.94 3.3,-40.18 1.49,0.84 2.97,1.68 4.61,2.31 17.4,6.62 36.68,-2.03 43.04,-19.33 6.37,-17.3 -2.58,-36.71 -19.98,-43.34 -1.77,-0.66 -3.55,-1.07 -5.33,-1.43 6.51,-11.61 14.24,-22.63 23.18,-32.92 0.9,1.52 1.82,3.03 2.99,4.44 11.89,14.39 33.05,16.6 47.27,4.93 14.22,-11.68 16.1,-32.8 4.21,-47.2 -1.21,-1.46 -2.58,-2.72 -3.97,-3.93 11.8,-6.86 24.12,-12.38 36.75,-16.62 0.03,1.75 0.08,3.51 0.39,5.29 3.19,18.3 20.57,30.78 38.83,27.87 18.26,-2.91 30.47,-20.11 27.28,-38.41 -0.31,-1.79 -0.86,-3.48 -1.44,-5.15 13.49,0.07 26.97,1.46 40.22,4.18 -0.78,1.43 -1.58,2.87 -2.17,4.45 -6.36,17.3 2.58,36.71 19.99,43.34 17.41,6.62 36.68,-2.03 43.04,-19.34 0.58,-1.57 0.9,-3.18 1.23,-4.78 11.52,6.69 22.5,14.55 32.77,23.59 -1.28,0.78 -2.57,1.52 -3.76,2.48 -14.21,11.68 -16.1,32.81 -4.21,47.2 11.89,14.39 33.05,16.6 47.27,4.93 1.16,-0.96 2.1,-2.06 3.1,-3.12 6.83,11.69 12.41,23.83 16.72,36.28 -1.35,0.05 -2.69,0.02 -4.05,0.23 -18.26,2.91 -30.47,20.11 -27.29,38.41 3.19,18.3 20.58,30.77 38.83,27.86 1.35,-0.22 2.58,-0.65 3.85,-1.02 0.1,13.17 -1.06,26.3 -3.49,39.21 -1.09,-0.55 -2.12,-1.19 -3.29,-1.64 -17.4,-6.63 -36.67,2.02 -43.04,19.33 -6.37,17.3 2.58,36.71 19.99,43.34 1.19,0.45 2.4,0.66 3.6,0.97 -6.36,11.2 -13.88,21.84 -22.52,31.8 -0.64,-0.96 -1.18,-1.95 -1.92,-2.86 -11.89,-14.39 -33.06,-16.6 -47.27,-4.93 -14.22,11.68 -16.11,32.8 -4.22,47.2 0.8,0.96 1.74,1.73 2.61,2.58"
            style="fill:#fab81d;fill-opacity:1;fill-rule:nonzero;stroke:none"
            id="path28"/><path
            d="m 1197.57,1829.57 c 46.19,35.05 111.72,26.42 146.08,-19.24 34.37,-45.65 24.74,-111.3 -21.45,-146.35 -46.19,-35.04 -111.72,-26.43 -146.08,19.22 -34.36,45.66 -24.74,111.32 21.45,146.37 z m -62.37,-177.41 c 51.14,-67.96 148.69,-80.79 217.44,-28.62 68.76,52.16 83.08,149.89 31.93,217.85 -51.14,67.96 -148.69,80.8 -217.44,28.63 -68.75,-52.17 -83.08,-149.9 -31.93,-217.86"
            style="fill:#fab81d;fill-opacity:1;fill-rule:nonzero;stroke:none"
            id="path30"/><path
            d="m 1186.53,1844.24 c 54.37,41.26 131.51,31.1 171.96,-22.64 40.45,-53.75 29.13,-131.03 -25.24,-172.29 -54.38,-41.25 -131.52,-31.11 -171.97,22.63 -40.46,53.74 -29.12,131.04 25.25,172.3 z"
            style="fill:none;stroke:#202021;stroke-width:5;stroke-linecap:round;stroke-linejoin:miter;stroke-miterlimit:10;stroke-dasharray:none;stroke-opacity:1"
            id="path32"/><path
            d="M 4345.64,3048.65 4216.23,2872.39"
            style="fill:none;stroke:#040606;stroke-width:5;stroke-linecap:butt;stroke-linejoin:miter;stroke-miterlimit:10;stroke-dasharray:none;stroke-opacity:1"
            id="path34"/><path
            d="m 4232.78,2833.84 49.49,67.06"
            style="fill:none;stroke:#040606;stroke-width:5;stroke-linecap:butt;stroke-linejoin:miter;stroke-miterlimit:10;stroke-dasharray:none;stroke-opacity:1"
            id="path36"/><path
            d="m 1367.4,4118.66 9.14,70.73 61.91,-26.96 17.16,73.27 64.36,-30.6 14.32,73.44 67.15,-27.52 16.29,72.83"
            style="fill:none;stroke:#040606;stroke-width:5;stroke-linecap:butt;stroke-linejoin:miter;stroke-miterlimit:10;stroke-dasharray:none;stroke-opacity:1"
            id="path38"/><path
            d="m 3107.8,514.66 c 0,51.699 41.91,93.602 93.6,93.602 51.69,0 93.6,-41.903 93.6,-93.602"
            style="fill:none;stroke:#040606;stroke-width:5;stroke-linecap:butt;stroke-linejoin:miter;stroke-miterlimit:10;stroke-dasharray:none;stroke-opacity:1"
            id="path40"/><path
            d="m 1915.35,711.488 c 6.83,-21.297 -3.45,-46.597 -28.29,-53.769 -21.81,-6.289 -35.87,-6.668 -53.05,-26.231 -11.3,-12.879 -18.37,-32.097 -32.76,-41.336 -12.79,-8.23 -31.09,-9.8 -39.81,5.297 -5.41,9.383 -3.82,21.43 0.85,31.199 4.68,9.782 12.06,17.934 18.53,26.614 10.86,14.578 19.28,30.828 29.57,45.808 10.31,14.981 22.99,29.051 39.51,36.629 16.52,7.59 37.5,7.492 51.6,-3.98 6.85,-5.578 11.43,-12.649 13.85,-20.231 z"
            style="fill:none;stroke:#040606;stroke-width:5;stroke-linecap:butt;stroke-linejoin:miter;stroke-miterlimit:10;stroke-dasharray:none;stroke-opacity:1"
            id="path42"/><path
            d="m 1941.95,785.531 c 0,-12.871 -10.43,-23.301 -23.3,-23.301 -12.87,0 -23.3,10.43 -23.3,23.301 0,12.86 10.43,23.301 23.3,23.301 12.87,0 23.3,-10.441 23.3,-23.301"
            style="fill:#040606;fill-opacity:1;fill-rule:nonzero;stroke:none"
            id="path44"/><path
            d="m 4173.01,1139.64 c -23.36,0 -42.29,18.93 -42.29,42.28 0,23.36 18.93,42.29 42.29,42.29"
            style="fill:#040606;fill-opacity:1;fill-rule:nonzero;stroke:none"
            id="path46"/><path
            d="m 585.434,3457.71 c 0,-17.06 -13.825,-30.87 -30.871,-30.87 -17.051,0 -30.868,13.81 -30.868,30.87 0,17.05 13.817,30.86 30.868,30.86 17.046,0 30.871,-13.81 30.871,-30.86"
            style="fill:#040606;fill-opacity:1;fill-rule:nonzero;stroke:none"
            id="path48"/><path
            d="m 4039.36,3454.97 c -9.94,-12.06 -27.77,-13.78 -39.84,-3.84 -12.05,9.94 -13.77,27.78 -3.83,39.84 9.93,12.06 27.77,13.78 39.83,3.83 12.06,-9.94 13.78,-27.77 3.84,-39.83"
            style="fill:#040606;fill-opacity:1;fill-rule:nonzero;stroke:none"
            id="path50"/><path
            d="m 2523.78,4370.83 c -10.16,-11.74 -27.92,-13.02 -39.66,-2.85 -11.74,10.16 -13.01,27.92 -2.85,39.66 10.17,11.74 27.93,13.01 39.67,2.85 11.73,-10.17 13.01,-27.92 2.84,-39.66"
            style="fill:#040606;fill-opacity:1;fill-rule:nonzero;stroke:none"
            id="path52"/><path
            d="m 2419.51,4232.59 c -22.86,19.79 -39.6,77.29 4.37,81.7 38.34,3.85 79.43,-10.47 114.39,5.75 9.05,4.2 17.28,10.33 26.91,12.94 9.62,2.61 21.72,0.38 26.33,-8.47 5.75,-11.05 -3.2,-23.82 -11.82,-32.82 -37.13,-38.76 -103.19,-108.46 -160.18,-59.1 z"
            style="fill:none;stroke:#040606;stroke-width:5;stroke-linecap:butt;stroke-linejoin:miter;stroke-miterlimit:10;stroke-dasharray:none;stroke-opacity:1"
            id="path54"/><path
            d="m 976.758,2640.49 c 0,-12.78 -10.367,-23.15 -23.156,-23.15 -12.786,0 -23.149,10.37 -23.149,23.15 0,12.79 10.363,23.15 23.149,23.15 12.789,0 23.156,-10.36 23.156,-23.15 z"
            style="fill:none;stroke:#040606;stroke-width:5;stroke-linecap:butt;stroke-linejoin:miter;stroke-miterlimit:10;stroke-dasharray:none;stroke-opacity:1"
            id="path56"/><path
            d="m 4210.94,1143.8 c 30.3,0 54.87,-24.57 54.87,-54.88 0,-30.31 -24.57,-54.88 -54.87,-54.88"
            style="fill:none;stroke:#040606;stroke-width:5;stroke-linecap:butt;stroke-linejoin:miter;stroke-miterlimit:10;stroke-dasharray:none;stroke-opacity:1"
            id="path58"/><path
            d="m 559.926,3285.33 155.625,159.49"
            style="fill:none;stroke:#6b7822;stroke-width:5;stroke-linecap:butt;stroke-linejoin:miter;stroke-miterlimit:10;stroke-dasharray:none;stroke-opacity:1"
            id="path60"/><path
            d="m 576.379,3358.64 79.742,79.75"
            style="fill:none;stroke:#6b7822;stroke-width:5;stroke-linecap:butt;stroke-linejoin:miter;stroke-miterlimit:10;stroke-dasharray:none;stroke-opacity:1"
            id="path62"/><path
            d="m 3206.38,2484.8 -21.38,66.66 68.03,-4.55 -17.49,71.84 73.85,3.22 -23.64,63.65"
            style="fill:none;stroke:#040606;stroke-width:5;stroke-linecap:butt;stroke-linejoin:miter;stroke-miterlimit:10;stroke-dasharray:none;stroke-opacity:1"
            id="path64"/><path
            d="m 846.879,2207.27 c 5.379,5.79 11.195,11.41 17.367,16.9 31,27.56 66.871,49.78 94.574,80.63 23.129,25.77 39.953,57.15 48.6,90.68 8.28,32.13 11.13,69.56 37.22,90.06 18.82,14.79 46.33,15.96 67.96,5.69 59.06,-28.04 57.72,-117.57 35.91,-169.98 -11.63,-27.97 -31.44,-51.73 -45.52,-78.54 -43.3,-82.46 -59.07,-214.84 -176.982,-227.67 -50.356,-5.48 -94.418,19.13 -111.188,67.67 -16.953,49.05 -0.425,89.62 32.059,124.56 z"
            style="fill:none;stroke:#040606;stroke-width:5;stroke-linecap:butt;stroke-linejoin:miter;stroke-miterlimit:10;stroke-dasharray:none;stroke-opacity:1"
            id="path66"/><path
            d="m 3554.06,2914.9 c -2.58,45.67 23.67,88.63 24.96,134.34 0.69,24.45 -5.8,48.46 -9.8,72.59 -3.99,24.14 -5.29,49.92 5.09,72.08 10.38,22.14 35.57,38.92 59.18,32.55 25.32,-6.85 37.83,-35.33 42.45,-61.14 5.14,-28.68 4.84,-58.33 -0.86,-86.91 -7.27,-36.4 -23.28,-71.75 -21.51,-108.83 1.28,-26.7 11.8,-52.53 11.21,-79.26 -0.67,-30.34 -26.84,-69.4 -60.73,-58.68 -30.17,9.55 -48.38,54.89 -49.99,83.26 z"
            style="fill:none;stroke:#040606;stroke-width:5;stroke-linecap:butt;stroke-linejoin:miter;stroke-miterlimit:10;stroke-dasharray:none;stroke-opacity:1"
            id="path68"/><path
            d="m 3686.3,3457.91 c -15.81,-11.46 -32.49,-24.09 -38.81,-42.57 -6.32,-18.47 3.99,-43.66 23.48,-44.81 7.07,-0.41 13.95,2.32 20.19,5.65 17.86,9.53 33.55,26.11 35.42,46.28 1.86,20.16 -15.12,41.94 -35.24,39.66"
            style="fill:none;stroke:#040606;stroke-width:5;stroke-linecap:butt;stroke-linejoin:miter;stroke-miterlimit:10;stroke-dasharray:none;stroke-opacity:1"
            id="path70"/><path
            d="m 1636.96,3939.57 c -79.62,0 -144.17,71.99 -144.17,71.99 0,0 64.55,72 144.17,72 79.62,0 144.17,-72 144.17,-72 0,0 -64.55,-71.99 -144.17,-71.99"
            style="fill:#ffffff;fill-opacity:1;fill-rule:nonzero;stroke:none"
            id="path72"/><path
            d="m 1636.96,3939.57 c -79.62,0 -144.17,71.99 -144.17,71.99 0,0 64.55,72 144.17,72 79.62,0 144.17,-72 144.17,-72 0,0 -64.55,-71.99 -144.17,-71.99 z"
            style="fill:none;stroke:#171717;stroke-width:5;stroke-linecap:butt;stroke-linejoin:miter;stroke-miterlimit:10;stroke-dasharray:none;stroke-opacity:1"
            id="path74"/><path
            d="m 1636.45,3939.39 c -34.73,0 -62.89,32.27 -62.89,72.09 0,39.81 28.16,72.08 62.89,72.08 34.73,0 62.89,-32.27 62.89,-72.08 0,-39.82 -28.16,-72.09 -62.89,-72.09"
            style="fill:#040606;fill-opacity:1;fill-rule:nonzero;stroke:none"
            id="path76"/><path
            d="m 3993.52,1402.38 c -92.4,0 -167.31,83.55 -167.31,83.55 0,0 74.91,83.55 167.31,83.55 92.41,0 167.32,-83.55 167.32,-83.55 0,0 -74.91,-83.55 -167.32,-83.55"
            style="fill:#ffffff;fill-opacity:1;fill-rule:nonzero;stroke:none"
            id="path78"/><path
            d="m 3993.52,1402.38 c -92.4,0 -167.31,83.55 -167.31,83.55 0,0 74.91,83.55 167.31,83.55 92.41,0 167.32,-83.55 167.32,-83.55 0,0 -74.91,-83.55 -167.32,-83.55 z"
            style="fill:none;stroke:#171717;stroke-width:5;stroke-linecap:butt;stroke-linejoin:miter;stroke-miterlimit:10;stroke-dasharray:none;stroke-opacity:1"
            id="path80"/><path
            d="m 3992.93,1402.17 c -40.31,0 -72.99,37.45 -72.99,83.65 0,46.21 32.68,83.66 72.99,83.66 40.31,0 72.99,-37.45 72.99,-83.66 0,-46.2 -32.68,-83.65 -72.99,-83.65"
            style="fill:#040606;fill-opacity:1;fill-rule:nonzero;stroke:none"
            id="path82"/><path
            d="m 4168.19,3113.5 c 0,-95.59 -77.49,-173.07 -173.07,-173.07 -95.58,0 -173.07,77.48 -173.07,173.07 0,95.58 77.49,173.06 173.07,173.06 95.58,0 173.07,-77.48 173.07,-173.06"
            style="fill:#040606;fill-opacity:1;fill-rule:nonzero;stroke:none"
            id="path84"/><path
            d="m 4134.84,3124.61 c 0,-95.59 -77.48,-173.07 -173.06,-173.07 -95.59,0 -173.08,77.48 -173.08,173.07 0,95.59 77.49,173.07 173.08,173.07 95.58,0 173.06,-77.48 173.06,-173.07"
            style="fill:#f2596d;fill-opacity:1;fill-rule:nonzero;stroke:none"
            id="path86"/><path
            d="m 3951.67,3029.16 c -0.9,-0.18 -1.61,-0.27 -2.15,-0.27 -0.54,0 -1.07,0 -1.61,0 -5.55,0 -10.57,0.18 -15.04,0.53 -4.48,0.37 -8.64,0.9 -12.49,1.62 -3.85,0.72 -7.56,1.61 -11.14,2.68 -3.59,1.07 -7.25,2.24 -11.01,3.5 0.35,3.93 1.11,7.92 2.28,11.95 1.16,4.02 2.46,7.92 3.89,11.68 6.09,-1.97 12.36,-3.72 18.8,-5.23 6.45,-1.53 14.23,-2.29 23.37,-2.29 14.68,0 25.6,2.86 32.76,8.59 7.16,5.73 10.74,13.61 10.74,23.64 0,5.01 -0.76,9.22 -2.28,12.61 -1.52,3.4 -3.81,6.36 -6.85,8.87 -3.05,2.5 -6.89,4.79 -11.55,6.85 -4.65,2.06 -10.11,4.43 -16.38,7.12 l -12.89,5.37 c -5.37,2.15 -10.3,4.57 -14.77,7.25 -4.48,2.68 -8.37,5.86 -11.68,9.53 -3.32,3.67 -5.87,8.01 -7.66,13.03 -1.79,5.01 -2.68,11.01 -2.68,17.99 0,13.79 4.16,25.07 12.49,33.84 8.32,8.77 20.27,14.24 35.85,16.38 v 26.05 c 2.69,0.71 5.73,1.07 9.13,1.07 3.58,0 6.8,-0.36 9.67,-1.07 v -24.97 c 7.52,-0.36 14.9,-1.17 22.16,-2.42 7.25,-1.25 13.47,-2.86 18.66,-4.84 -0.9,-7.52 -2.87,-14.95 -5.91,-22.28 -4.83,1.78 -10.39,3.36 -16.65,4.69 -6.27,1.34 -13.52,2.02 -21.75,2.02 -11.28,0 -19.97,-2.15 -26.05,-6.45 -6.09,-4.3 -9.13,-10.92 -9.13,-19.87 0,-4.3 0.8,-8.02 2.41,-11.14 1.61,-3.14 3.99,-5.91 7.12,-8.33 3.13,-2.42 6.89,-4.61 11.28,-6.58 4.39,-1.97 9.35,-4.12 14.9,-6.45 l 10.21,-4.29 c 6.44,-2.69 12.26,-5.47 17.46,-8.33 5.18,-2.87 9.62,-6.27 13.29,-10.2 3.67,-3.95 6.53,-8.6 8.59,-13.97 2.06,-5.37 3.09,-11.91 3.09,-19.61 0,-15.21 -4.34,-27.62 -13.02,-37.19 -8.69,-9.58 -20.91,-15.89 -36.66,-18.93 v -30.89 c -1.44,-0.35 -2.96,-0.63 -4.57,-0.8 -1.6,-0.18 -3.13,-0.27 -4.56,-0.27 -1.61,0 -3.23,0.09 -4.84,0.27 -1.61,0.17 -3.22,0.45 -4.83,0.8 v 28.74"
            style="fill:#040606;fill-opacity:1;fill-rule:nonzero;stroke:none"
            id="path88"/><path
            d="m 806.273,2886.25 c 0,-86.74 -70.324,-157.06 -157.07,-157.06 -86.75,0 -157.07,70.32 -157.07,157.06 0,86.76 70.32,157.08 157.07,157.08 86.746,0 157.07,-70.32 157.07,-157.08"
            style="fill:#040606;fill-opacity:1;fill-rule:nonzero;stroke:none"
            id="path90"/><path
            d="m 776.008,2896.35 c 0,-86.75 -70.32,-157.07 -157.07,-157.07 -86.747,0 -157.071,70.32 -157.071,157.07 0,86.75 70.324,157.07 157.071,157.07 86.75,0 157.07,-70.32 157.07,-157.07"
            style="fill:#f2596d;fill-opacity:1;fill-rule:nonzero;stroke:none"
            id="path92"/><path
            d="m 609.77,2809.72 c -0.821,-0.17 -1.465,-0.25 -1.954,-0.25 -0.488,0 -0.976,0 -1.461,0 -5.042,0 -9.589,0.16 -13.652,0.49 -4.062,0.32 -7.836,0.81 -11.332,1.46 -3.496,0.65 -6.867,1.46 -10.113,2.44 -3.25,0.97 -6.582,2.03 -9.996,3.17 0.324,3.57 1.011,7.19 2.07,10.84 1.055,3.66 2.238,7.19 3.535,10.61 5.524,-1.8 11.219,-3.38 17.067,-4.76 5.847,-1.38 12.914,-2.07 21.203,-2.07 13.324,0 23.234,2.6 29.738,7.8 6.496,5.2 9.746,12.35 9.746,21.45 0,4.55 -0.691,8.37 -2.07,11.45 -1.379,3.09 -3.457,5.77 -6.219,8.05 -2.766,2.28 -6.258,4.35 -10.48,6.21 -4.223,1.87 -9.18,4.02 -14.868,6.47 l -11.699,4.87 c -4.875,1.95 -9.347,4.14 -13.402,6.58 -4.07,2.43 -7.598,5.31 -10.602,8.65 -3.011,3.32 -5.328,7.27 -6.949,11.82 -1.625,4.55 -2.434,10 -2.434,16.33 0,12.52 3.774,22.75 11.332,30.71 7.551,7.96 18.399,12.92 32.54,14.87 v 23.65 c 2.433,0.64 5.195,0.97 8.285,0.97 3.246,0 6.172,-0.33 8.773,-0.97 v -22.67 c 6.82,-0.33 13.531,-1.06 20.11,-2.2 6.582,-1.14 12.226,-2.59 16.941,-4.38 -0.82,-6.83 -2.606,-13.58 -5.359,-20.24 -4.391,1.63 -9.43,3.05 -15.114,4.27 -5.691,1.22 -12.273,1.83 -19.746,1.83 -10.234,0 -18.121,-1.96 -23.64,-5.85 -5.532,-3.9 -8.29,-9.91 -8.29,-18.04 0,-3.9 0.735,-7.27 2.196,-10.12 1.465,-2.84 3.617,-5.36 6.457,-7.54 2.844,-2.2 6.258,-4.19 10.234,-5.98 3.981,-1.79 8.492,-3.74 13.531,-5.85 l 9.262,-3.9 c 5.852,-2.44 11.129,-4.96 15.84,-7.56 4.715,-2.59 8.734,-5.69 12.066,-9.25 3.332,-3.59 5.934,-7.81 7.801,-12.68 1.867,-4.87 2.805,-10.81 2.805,-17.79 0,-13.82 -3.942,-25.07 -11.82,-33.76 -7.887,-8.69 -18.977,-14.43 -33.274,-17.19 v -28.03 c -1.305,-0.32 -2.68,-0.56 -4.144,-0.73 -1.461,-0.16 -2.84,-0.24 -4.141,-0.24 -1.461,0 -2.926,0.08 -4.391,0.24 -1.464,0.17 -2.922,0.41 -4.382,0.73 v 26.09"
            style="fill:#040606;fill-opacity:1;fill-rule:nonzero;stroke:none"
            id="path94"/><path
            d="m 1783.38,981.41 c 0,-181.25 -143.23,-328.18 -319.91,-328.18 -176.68,0 -319.9,146.93 -319.9,328.18 0,181.25 143.22,328.17 319.9,328.17 176.68,0 319.91,-146.92 319.91,-328.17"
            style="fill:#040606;fill-opacity:1;fill-rule:nonzero;stroke:none"
            id="path96"/><path
            d="m 1760.03,994.941 c 0,-181.25 -143.23,-328.171 -319.91,-328.171 -176.68,0 -319.91,146.921 -319.91,328.171 0,181.249 143.23,328.179 319.91,328.179 176.68,0 319.91,-146.93 319.91,-328.179"
            style="fill:#6ccedb;fill-opacity:1;fill-rule:nonzero;stroke:none"
            id="path98"/><path
            d="m 1440.12,1323.12 c 134.11,0 242.83,-146.93 242.83,-328.179 0,-181.25 -108.72,-328.171 -242.83,-328.171 -134.11,0 -242.83,146.921 -242.83,328.171 0,181.249 108.72,328.179 242.83,328.179 z"
            style="fill:none;stroke:#040606;stroke-width:5;stroke-linecap:butt;stroke-linejoin:miter;stroke-miterlimit:10;stroke-dasharray:none;stroke-opacity:1"
            id="path100"/><path
            d="m 1440.12,1323.12 c 49.4,0 89.45,-146.93 89.45,-328.179 0,-181.25 -40.05,-328.171 -89.45,-328.171 -49.4,0 -89.45,146.921 -89.45,328.171 0,181.249 40.05,328.179 89.45,328.179 z"
            style="fill:none;stroke:#040606;stroke-width:5;stroke-linecap:butt;stroke-linejoin:miter;stroke-miterlimit:10;stroke-dasharray:none;stroke-opacity:1"
            id="path102"/><g
            id="g104"><g
           id="g106"
           clip-path="url(#clipPath110)"><path
             d="m 1760.03,618.398 c 0,-126.566 -143.23,-229.168 -319.91,-229.168 -176.68,0 -319.91,102.602 -319.91,229.168 0,126.571 143.23,229.184 319.91,229.184 176.68,0 319.91,-102.613 319.91,-229.184 z"
             style="fill:none;stroke:#040606;stroke-width:5;stroke-linecap:butt;stroke-linejoin:miter;stroke-miterlimit:10;stroke-dasharray:none;stroke-opacity:1"
             id="path112" /><path
            d="m 1760.03,1363.31 c 0,-126.57 -143.23,-229.18 -319.91,-229.18 -176.68,0 -319.91,102.61 -319.91,229.18 0,126.56 143.23,229.17 319.91,229.17 176.68,0 319.91,-102.61 319.91,-229.17 z"
            style="fill:none;stroke:#040606;stroke-width:5;stroke-linecap:butt;stroke-linejoin:miter;stroke-miterlimit:10;stroke-dasharray:none;stroke-opacity:1"
            id="path114"/><path
            d="m 1072.97,976.148 h 719.62"
            style="fill:none;stroke:#040606;stroke-width:5;stroke-linecap:butt;stroke-linejoin:miter;stroke-miterlimit:10;stroke-dasharray:none;stroke-opacity:1"
            id="path116"/></g></g><path
            d="m 1730.09,940.969 c -2.98,-23.438 -9.15,-46.449 -18.28,-68.16"
            style="fill:none;stroke:#040606;stroke-width:5;stroke-linecap:butt;stroke-linejoin:miter;stroke-miterlimit:10;stroke-dasharray:none;stroke-opacity:1"
            id="path118"/><path
            d="m 1725.02,1083.83 c 6.92,-28.37 9.48,-57.85 7.59,-87.029"
            style="fill:none;stroke:#040606;stroke-width:5;stroke-linecap:butt;stroke-linejoin:miter;stroke-miterlimit:10;stroke-dasharray:none;stroke-opacity:1"
            id="path120"/><path
            d="m 1699.76,835.609 c -3.02,-4.14 -6.04,-8.269 -9.06,-12.398"
            style="fill:none;stroke:#040606;stroke-width:5;stroke-linecap:butt;stroke-linejoin:miter;stroke-miterlimit:10;stroke-dasharray:none;stroke-opacity:1"
            id="path122"/><path
            d="m 904.023,4078.48 c -192.824,0 -349.136,-72.48 -349.14,-161.9 0,-52.94 51.449,-89.29 93.828,-110.41 32.426,-16.15 67.348,-27.21 102.644,-35.19 47.387,-10.65 96.977,-16.83 146.79,-17.74 2.414,-29.52 44.746,-125.11 59.476,-141.94 12.992,-14.84 29.059,-28.71 48.579,-31.51 -32.282,52.08 -47.153,114.23 -44.063,175.39 63.053,4.85 125.103,18.79 182.063,43.89 47.08,20.75 108.96,58.78 108.96,117.51 0,89.42 -156.31,161.9 -349.137,161.9"
            style="fill:#fbceca;fill-opacity:1;fill-rule:nonzero;stroke:none"
            id="path124"/><path
            d="m 662.242,3929.3 c 3.242,-28.89 29.403,-52.93 57.219,-52.59 27.816,0.34 53.43,25.02 56.016,53.97 0.964,10.87 -2.2,23.69 -11.793,28 -9.598,4.32 -21.309,-2.77 -25.344,-12.84 -4.039,-10.08 -1.988,-21.77 2.16,-31.8 12.617,-30.48 45.371,-50.39 76.953,-46.76 31.582,3.61 59.442,30.46 65.445,63.07 2.051,11.15 0.864,24.61 -8.117,31.01 -11.133,7.93 -27.769,-1.43 -31.652,-14.91 -3.879,-13.49 1.769,-28.12 9.91,-39.34 16.945,-23.36 45.68,-35.29 73.316,-34.04 12.403,0.55 28.645,3.57 38.961,11.04 15.141,10.98 30.289,46.23 18.387,63.95 -2.348,3.5 -6.144,6.24 -10.234,6.06 -2.781,-0.12 -5.391,-1.56 -7.5,-3.47 -5.422,-4.88 -7.875,-12.61 -8.086,-20.09 -0.434,-15.42 8.226,-32.67 17.961,-43.97 18.113,-21.03 49.566,-27.31 74.526,-16.35 24.96,10.97 42.39,37.66 44.85,65.84 0.93,10.57 -3.4,24.65 -13.54,24.12 -7.47,-0.41 -11.91,-8.94 -13.55,-16.57 -4.75,-22.02 1.98,-46.37 17.22,-62.35 15.26,-15.98 38.53,-23.07 59.61,-18.15"
            style="fill:none;stroke:#040606;stroke-width:5;stroke-linecap:butt;stroke-linejoin:miter;stroke-miterlimit:10;stroke-dasharray:none;stroke-opacity:1"
            id="path126"/><path
            d="m 598.645,3880.5 c 14.941,-34.28 51.773,-53.56 87.703,-63.93"
            style="fill:none;stroke:#040606;stroke-width:5;stroke-linecap:butt;stroke-linejoin:miter;stroke-miterlimit:10;stroke-dasharray:none;stroke-opacity:1"
            id="path128"/><path
            d="m 704.328,3808.18 c 11.395,-5.4 23.727,-8.81 36.277,-10.03"
            style="fill:none;stroke:#040606;stroke-width:5;stroke-linecap:butt;stroke-linejoin:miter;stroke-miterlimit:10;stroke-dasharray:none;stroke-opacity:1"
            id="path130"/><path
            d="m 1119.48,4014.13 c 28.09,-9.25 54.65,-23.12 78.3,-40.9"
            style="fill:none;stroke:#040606;stroke-width:5;stroke-linecap:butt;stroke-linejoin:miter;stroke-miterlimit:10;stroke-dasharray:none;stroke-opacity:1"
            id="path132"/><path
            d="m 2509.12,522.289 1033.86,357 c 111.39,38.449 157.82,153.251 103.7,256.381 L 2309,3597.35 c -54.11,103.14 -188.28,155.57 -299.67,117.1 L 1000.19,3398.19 C 888.797,3359.73 842.367,3244.93 896.477,3141.8 L 2209.45,639.379 c 54.12,-103.129 188.29,-155.559 299.67,-117.09"
            style="fill:#040606;fill-opacity:1;fill-rule:nonzero;stroke:none"
            id="path134"/><path
            d="m 2491.35,603.48 1104.28,381.309 c 64.38,22.231 91.21,88.581 59.93,148.191 L 2279.79,3667.26 c -31.28,59.61 -108.82,89.91 -173.21,67.68 L 1027.01,3394.36 c -64.373,-22.23 -91.209,-88.59 -59.932,-148.2 L 2318.14,671.148 c 31.28,-59.609 108.83,-89.91 173.21,-67.668"
            style="fill:#ffffff;fill-opacity:1;fill-rule:nonzero;stroke:none"
            id="path136"/><path
            d="m 1544.01,3443.2 190.66,61.3 c 7.72,2.67 10.93,10.63 7.18,17.77 v 0 c -3.74,7.14 -13.04,10.78 -20.76,8.11 l -190.65,-61.3 c -7.72,-2.66 -10.94,-10.61 -7.19,-17.76 v 0 c 3.75,-7.15 13.05,-10.78 20.76,-8.12"
            style="fill:#040606;fill-opacity:1;fill-rule:nonzero;stroke:none"
            id="path138"/><path
            d="m 1821.16,3533.91 v 0 c 7.71,2.66 10.93,10.61 7.19,17.76 v 0 c -3.75,7.15 -13.05,10.77 -20.77,8.12 v 0 c -7.71,-2.67 -10.93,-10.63 -7.18,-17.77 v 0 c 3.75,-7.15 13.04,-10.78 20.76,-8.11"
            style="fill:#040606;fill-opacity:1;fill-rule:nonzero;stroke:none"
            id="path140"/><path
            d="m 1467.08,2130.36 v 0 c 15.14,5.23 21.45,20.83 14.1,34.85 l -53.29,101.57 c -7.35,14.02 -25.6,21.15 -40.74,15.93 v 0 c -15.15,-5.24 -21.46,-20.84 -14.11,-34.87 l 53.29,-101.56 c 7.36,-14.02 25.6,-21.15 40.75,-15.92"
            style="fill:#4a89a2;fill-opacity:1;fill-rule:nonzero;stroke:none"
            id="path142"/><path
            d="m 1215.17,2610.47 v 0 c 15.15,5.23 21.46,20.84 14.1,34.86 l -162.28,309.31 c -7.36,14.02 -25.61,21.15 -40.75,15.92 v 0 c -15.15,-5.23 -21.46,-20.84 -14.1,-34.86 l 162.29,-309.3 c 7.35,-14.03 25.59,-21.16 40.74,-15.93"
            style="fill:#4a89a2;fill-opacity:1;fill-rule:nonzero;stroke:none"
            id="path144"/><path
            d="m 1200.21,2605.31 v 0 c 15.15,5.23 21.46,20.83 14.1,34.86 l -162.29,309.3 c -7.35,14.03 -25.6,21.15 -40.74,15.92 v 0 c -15.143,-5.22 -21.46,-20.83 -14.1,-34.85 l 162.29,-309.31 c 7.35,-14.02 25.6,-21.15 40.74,-15.92"
            style="fill:#040606;fill-opacity:1;fill-rule:nonzero;stroke:none"
            id="path146"/><path
            d="m 1452.12,2125.19 v 0 c 15.14,5.23 21.46,20.84 14.1,34.86 l -53.29,101.56 c -7.36,14.02 -25.59,21.15 -40.74,15.93 v 0 c -15.15,-5.24 -21.46,-20.84 -14.1,-34.86 l 53.28,-101.57 c 7.36,-14.02 25.61,-21.15 40.75,-15.92"
            style="fill:#040606;fill-opacity:1;fill-rule:nonzero;stroke:none"
            id="path148"/><path
            d="m 1561.54,1950.31 v 0 c 15.15,5.24 21.46,20.84 14.1,34.87 l -53.28,101.56 c -7.36,14.02 -25.6,21.15 -40.75,15.92 v 0 c -15.15,-5.23 -21.46,-20.83 -14.1,-34.87 l 53.29,-101.56 c 7.36,-14.01 25.59,-21.14 40.74,-15.92"
            style="fill:#a2abb5;fill-opacity:1;fill-rule:nonzero;stroke:none"
            id="path150"/><path
            d="m 1546.58,1945.15 v 0 c 15.15,5.23 21.46,20.84 14.11,34.86 l -53.29,101.56 c -7.36,14.03 -25.6,21.15 -40.75,15.92 v 0 c -15.14,-5.22 -21.46,-20.84 -14.1,-34.85 l 53.29,-101.57 c 7.36,-14.02 25.6,-21.15 40.74,-15.92"
            style="fill:#040606;fill-opacity:1;fill-rule:nonzero;stroke:none"
            id="path152"/><path
            d="M 2294.98,719.039 3632.4,1180.87 2317.92,3598.34 1005.2,3177.25 2294.98,719.039"
            style="fill:#6ccedb;fill-opacity:1;fill-rule:nonzero;stroke:none"
            id="path154"/><path
            d="m 1038.3,3387.52 c -64.48,-22.27 -77.987,-99.93 -46.659,-159.64 L 2316.28,696.891 c 31.33,-59.7 64.68,-104.789 180.93,-87.59 l 1084.77,374.961 c 64.48,22.258 91.09,92.568 59.76,152.268 L 2284.35,3644.18 c -32.02,67.98 -112.16,104.79 -189.93,74.91 z M 2294.23,680.77 959.047,3225.52 c -39.883,76.01 -5.543,160.92 76.553,189.27 l 1046.89,329.29 c 82.09,28.35 181.33,-10.43 221.21,-86.44 L 3663.6,1153.62 c 39.88,-76.01 5.53,-160.909 -76.56,-189.261 L 2515.45,594.332 c -82.1,-28.352 -181.34,10.43 -221.22,86.438"
            style="fill:#4a89a2;fill-opacity:1;fill-rule:nonzero;stroke:none"
            id="path156"/><path
            d="m 1047.9,3386.28 c -63.377,-21.88 -89.888,-87.42 -59.099,-146.1 L 2329.82,684.309 c 30.78,-58.68 107.39,-88.618 170.77,-66.727 L 3576.68,989.16 c 63.38,21.88 89.89,87.43 59.1,146.11 L 2270.05,3650.4 c -30.78,58.68 -107.4,88.62 -170.77,66.74 z M 2317.84,680.18 976.824,3236.04 c -34,64.79 -4.722,137.16 65.256,161.33 l 1051.38,330.85 c 69.98,24.17 154.58,-8.88 188.57,-73.68 L 3647.76,1139.4 c 34,-64.79 4.72,-137.16 -65.26,-161.318 L 2506.41,606.48 c -69.98,-24.16 -154.57,8.899 -188.57,73.7"
            style="fill:#040606;fill-opacity:1;fill-rule:nonzero;stroke:none"
            id="path158"/><path
            d="m 3519.78,3625.42 c -2.59,4.22 -6.55,7.67 -9.35,11.84 -3.52,5.25 -5.1,11.54 -6.61,17.68 -3.09,12.53 -6.19,25.06 -9.28,37.59 -2.74,11.08 -8.39,19.52 -16.02,28.04 -6.35,7.1 -14.51,13.71 -24.03,13.87 -7.24,0.13 -13.97,-3.5 -20.07,-7.4 -64.07,-40.9 -74.13,-107.3 -102.49,-171.6 -5.35,-12.16 -12.01,-23.81 -15.79,-36.54 -6.77,-22.84 -2.87,-49.31 18.39,-62.44 19.31,-12.07 50.86,-11.32 70.09,1.45 19.24,12.77 25.02,51.59 32.58,72.11 0.9,2.46 1.88,5.03 3.83,6.77 6.71,5.95 18.72,4.17 26.55,12.49 5.83,6.19 9.14,14.56 14.18,21.36 9.56,12.92 26.84,18.16 36.22,31.93 3.86,5.67 5.84,13.07 3.45,19.51 -0.44,1.18 -1,2.29 -1.65,3.34"
            style="fill:#ffffff;fill-opacity:1;fill-rule:nonzero;stroke:none"
            id="path160"/><path
            d="m 3519.78,3625.42 c -2.59,4.22 -6.55,7.67 -9.35,11.84 -3.52,5.25 -5.1,11.54 -6.61,17.68 -3.09,12.53 -6.19,25.06 -9.28,37.59 -2.74,11.08 -8.39,19.52 -16.02,28.04 -6.35,7.1 -14.51,13.71 -24.03,13.87 -7.24,0.13 -13.97,-3.5 -20.07,-7.4 -64.07,-40.9 -74.13,-107.3 -102.49,-171.6 -5.35,-12.16 -12.01,-23.81 -15.79,-36.54 -6.77,-22.84 -2.87,-49.31 18.39,-62.44 19.31,-12.07 50.86,-11.32 70.09,1.45 19.24,12.77 25.02,51.59 32.58,72.11 0.9,2.46 1.88,5.03 3.83,6.77 6.71,5.95 18.72,4.17 26.55,12.49 5.83,6.19 9.14,14.56 14.18,21.36 9.56,12.92 26.84,18.16 36.22,31.93 3.86,5.67 5.84,13.07 3.45,19.51 -0.44,1.18 -1,2.29 -1.65,3.34 z"
            style="fill:none;stroke:#171717;stroke-width:5;stroke-linecap:butt;stroke-linejoin:miter;stroke-miterlimit:10;stroke-dasharray:none;stroke-opacity:1"
            id="path162"/><path
            d="m 3400.75,3654.23 c -0.07,39.26 -1.38,55.93 -16.41,92.39 -3.53,8.57 -13.49,7.84 -22.75,8.12 -3.61,-18.73 -0.28,-38.17 -2.67,-57.1 -1.58,-12.5 -5.63,-24.8 -9.18,-37.05 -7.79,-26.92 -11.7,-55.7 7.36,-79.05"
            style="fill:#ffffff;fill-opacity:1;fill-rule:nonzero;stroke:none"
            id="path164"/><path
            d="m 3400.75,3654.23 c -0.07,39.26 -1.38,55.93 -16.41,92.39 -3.53,8.57 -13.49,7.84 -22.75,8.12 -3.61,-18.73 -0.28,-38.17 -2.67,-57.1 -1.58,-12.5 -5.63,-24.8 -9.18,-37.05 -7.79,-26.92 -11.7,-55.7 7.36,-79.05"
            style="fill:none;stroke:#171717;stroke-width:5;stroke-linecap:butt;stroke-linejoin:miter;stroke-miterlimit:10;stroke-dasharray:none;stroke-opacity:1"
            id="path166"/><path
            d="m 3327.85,3770.54 v 0 c -19.91,-9.09 -43.42,-0.33 -52.52,19.57 l -10.12,22.15 c -9.1,19.9 -0.34,43.41 19.57,52.52 v 0 c 19.9,9.09 43.42,0.33 52.51,-19.57 l 10.13,-22.15 c 9.1,-19.91 0.33,-43.42 -19.57,-52.52"
            style="fill:#0d1e29;fill-opacity:1;fill-rule:nonzero;stroke:none"
            id="path168"/><path
            d="m 3458.47,3573.7 c 2.56,-9.12 5.66,-26.5 6.82,-41.08 0.58,-7.33 6.56,-13.87 12.32,-13.22 20.17,2.3 40.75,20.03 39.01,34.04 1.48,78.09 -35.84,160.16 -69.86,216.83 -9.68,16.12 -29.56,21.18 -42.03,33.43 -12.64,12.42 -21.6,29.01 -38.87,29.58 -8.28,0.27 -15.57,-3.48 -20.74,-9.98 -4.55,-5.72 -12.02,-12.68 -11.52,-23.11 0.36,-7.57 4.08,-15.83 9.22,-21.62 86.56,-97.47 104.98,-166.89 115.65,-204.87"
            style="fill:#0d1e29;fill-opacity:1;fill-rule:nonzero;stroke:none"
            id="path170"/><path
            d="m 3950.19,3827.03 c -185.92,-7.5 -369.07,-32.52 -549.63,-73.83 l -76.91,168.27 c 146.45,104.42 284.49,227.9 415.49,367.31 l 211.05,-461.75"
            style="fill:#fab81d;fill-opacity:1;fill-rule:nonzero;stroke:none"
            id="path172"/><path
            d="m 3779.56,4026.46 c 58.28,-127.51 135.36,-217.24 172.16,-200.42 36.8,16.82 19.39,133.82 -38.89,261.32 -58.29,127.52 -135.37,217.25 -172.16,200.43 -36.8,-16.82 -19.39,-133.83 38.89,-261.33"
            style="fill:#161f39;fill-opacity:1;fill-rule:nonzero;stroke:none"
            id="path174"/><path
            d="m 3453.46,3759.75 -6.93,-3.17 c -54.52,-24.92 -118.92,-0.93 -143.84,53.6 v 0 c -24.92,54.52 -0.92,118.92 53.6,143.84 l 6.92,3.17 90.25,-197.44"
            style="fill:#6ccedb;fill-opacity:1;fill-rule:nonzero;stroke:none"
            id="path176"/><g
            id="g178"><g
           id="g180"
           clip-path="url(#clipPath184)"><path
             d="m 3868.05,4065.64 c 17.83,-39.04 2.16,-84.46 -35.01,-101.44 -37.18,-16.99 -81.77,0.87 -99.61,39.9 -17.85,39.04 -2.17,84.45 35,101.44 37.17,16.99 81.77,-0.87 99.62,-39.9"
             style="fill:#f2596d;fill-opacity:1;fill-rule:nonzero;stroke:none"
             id="path186" /></g></g><path
            d="m 3742.91,4282.87 c -14.97,-6.85 -19.87,-38.03 -13.11,-83.44 7.27,-48.87 26.68,-109.51 54.68,-170.73 v 0 c 27.97,-61.22 61.11,-115.58 93.32,-153.06 29.91,-34.83 56.68,-51.49 71.68,-44.69 29.81,13.63 20.22,119.01 -41.57,254.17 -27.98,61.22 -61.11,115.57 -93.32,153.06 -25.49,29.68 -48.72,46.21 -64.3,46.21 -2.7,0 -5.16,-0.51 -7.38,-1.52 z M 3869.6,3868.6 c -32.84,38.24 -66.56,93.49 -94.95,155.61 v 0 c -28.4,62.12 -48.12,123.78 -55.54,173.62 -7.84,52.71 -1.17,85.51 19.31,94.87 20.47,9.35 49.64,-7.06 84.37,-47.49 32.83,-38.22 66.55,-93.48 94.95,-155.6 52.98,-115.89 81.01,-248.01 36.23,-268.48 -3.75,-1.72 -7.78,-2.57 -12.08,-2.57 -19.24,0 -43.92,17.02 -72.29,50.04"
            style="fill:#161f39;fill-opacity:1;fill-rule:nonzero;stroke:none"
            id="path188"/><path
            d="m 2997.15,3560.6 c 103.96,-21.7 142.59,-134.6 147.8,-234.16 1.69,-32.21 14.81,-77.96 8.57,-109.34 10.77,54.11 26.72,107.2 47.53,158.29 16.79,41.21 29.21,83.17 63.2,113.95 23.22,21.01 46.97,49.14 64.34,75.19 31.18,-20.83 81.84,-58.06 117.35,-70.14 -1.24,-30.97 -4.07,-50.55 3.79,-80.54 17.52,-66.72 -4.59,-143.38 -22.11,-208.62 -19.22,-71.58 -46.05,-141.13 -79.97,-207.03 -26.15,-50.8 -61.36,-103.34 -116.23,-119.25 -50.35,-14.61 -104.47,5.94 -148.47,34.45 -74.18,48.07 -134.98,121.71 -165.22,205.12 -31.8,87.7 -70.21,165.57 -70.32,262.3 -0.05,35.01 3.79,70.67 17.93,102.71 22.91,51.87 62.12,91.62 131.81,77.07"
            style="fill:#f2596d;fill-opacity:1;fill-rule:nonzero;stroke:none"
            id="path190"/><path
            d="m 3505.75,3677.29 c 7.36,5.02 18.3,-1.26 20.63,-9.87 2.41,-8.88 -0.4,-20.41 -5.38,-31.55 3.93,1.39 8.14,-0.08 10.06,-3.97 1.67,-3.39 2.02,-7.63 1.8,-11.36 -0.37,-6.16 -2.66,-12.26 -4.89,-17.95 -2.25,-5.75 -4.78,-11.39 -7.94,-16.7 -3.2,-5.39 -6.83,-10.44 -10.72,-15.35 -4.88,-6.19 -10.65,-13.62 -19.67,-10.96 -5.84,1.72 -9.6,7.23 -9.83,13.15 -0.13,3.39 0.87,6.47 2,9.59 1.08,2.95 2.48,5.8 3.7,8.71 -10.4,-8.26 -23.49,-16.39 -30.41,-12.06 -6.04,3.78 -5.09,12.81 -2.77,19.55 4.68,13.6 12.01,26.25 21.34,37.19 -7.9,-6.84 -16.25,-13.18 -25.06,-18.8 -4.08,-2.58 -8.83,-5.14 -13.5,-3.93 -8.52,2.19 -9.39,14.17 -6.49,22.47 5.18,14.83 16.04,26.88 26.63,38.49 0.83,0.9 1.65,1.81 2.48,2.71 -8.41,-8 -17.44,-15.33 -27.1,-21.77 -4.24,-2.83 -9.27,-5.6 -14.18,-4.22 -4.64,1.31 -7.59,6.16 -8.08,10.94 -0.48,4.8 1.03,9.55 2.73,14.06 11.64,30.71 33.66,57.23 62.38,73.26 3.68,2.05 7.62,3.9 11.83,4.07 4.2,0.16 8.73,-1.74 10.57,-5.53 1.37,-2.84 1.05,-6.19 0.48,-9.3 -1.54,-8.38 -4.64,-16.47 -9.11,-23.74 6.45,4.38 14.24,8.69 21.63,6.23 8.17,-2.71 11.75,-12.96 9.94,-21.39 -1.81,-8.42 -7.53,-15.38 -13.07,-21.97"
            style="fill:#ffffff;fill-opacity:1;fill-rule:nonzero;stroke:none"
            id="path192"/><path
            d="m 3505.75,3677.29 c 7.36,5.02 18.3,-1.26 20.63,-9.87 2.41,-8.88 -0.4,-20.41 -5.38,-31.55 3.93,1.39 8.14,-0.08 10.06,-3.97 1.67,-3.39 2.02,-7.63 1.8,-11.36 -0.37,-6.16 -2.66,-12.26 -4.89,-17.95 -2.25,-5.75 -4.78,-11.39 -7.94,-16.7 -3.2,-5.39 -6.83,-10.44 -10.72,-15.35 -4.88,-6.19 -10.65,-13.62 -19.67,-10.96 -5.84,1.72 -9.6,7.23 -9.83,13.15 -0.13,3.39 0.87,6.47 2,9.59 1.08,2.95 2.48,5.8 3.7,8.71 -10.4,-8.26 -23.49,-16.39 -30.41,-12.06 -6.04,3.78 -5.09,12.81 -2.77,19.55 4.68,13.6 12.01,26.25 21.34,37.19 -7.9,-6.84 -16.25,-13.18 -25.06,-18.8 -4.08,-2.58 -8.83,-5.14 -13.5,-3.93 -8.52,2.19 -9.39,14.17 -6.49,22.47 5.18,14.83 16.04,26.88 26.63,38.49 0.83,0.9 1.65,1.81 2.48,2.71 -8.41,-8 -17.44,-15.33 -27.1,-21.77 -4.24,-2.83 -9.27,-5.6 -14.18,-4.22 -4.64,1.31 -7.59,6.16 -8.08,10.94 -0.48,4.8 1.03,9.55 2.73,14.06 11.64,30.71 33.66,57.23 62.38,73.26 3.68,2.05 7.62,3.9 11.83,4.07 4.2,0.16 8.73,-1.74 10.57,-5.53 1.37,-2.84 1.05,-6.19 0.48,-9.3 -1.54,-8.38 -4.64,-16.47 -9.11,-23.74 6.45,4.38 14.24,8.69 21.63,6.23 8.17,-2.71 11.75,-12.96 9.94,-21.39 -1.81,-8.42 -7.53,-15.38 -13.07,-21.97 z"
            style="fill:none;stroke:#171717;stroke-width:5;stroke-linecap:butt;stroke-linejoin:miter;stroke-miterlimit:10;stroke-dasharray:none;stroke-opacity:1"
            id="path194"/><path
            d="m 3424.24,3940.99 c 71.21,54.11 142.42,108.22 213.63,162.32"
            style="fill:none;stroke:#040606;stroke-width:5;stroke-linecap:butt;stroke-linejoin:miter;stroke-miterlimit:10;stroke-dasharray:none;stroke-opacity:1"
            id="path196"/><path
            d="m 3663.45,4122.5 c 7.64,6.13 14.6,13.09 20.72,20.73"
            style="fill:none;stroke:#040606;stroke-width:5;stroke-linecap:butt;stroke-linejoin:miter;stroke-miterlimit:10;stroke-dasharray:none;stroke-opacity:1"
            id="path198"/><path
            d="m 3328.44,3903.09 c -16.89,-28.03 -15.37,-66.06 3.72,-92.64"
            style="fill:none;stroke:#040606;stroke-width:5;stroke-linecap:butt;stroke-linejoin:miter;stroke-miterlimit:10;stroke-dasharray:none;stroke-opacity:1"
            id="path200"/><path
            d="m 3349.51,3786.46 c 7.46,-7.87 18.38,-12.33 29.22,-11.93"
            style="fill:none;stroke:#040606;stroke-width:5;stroke-linecap:butt;stroke-linejoin:miter;stroke-miterlimit:10;stroke-dasharray:none;stroke-opacity:1"
            id="path202"/><path
            d="m 2147.35,3294.4 343.53,-676.56 -96.93,-33.15 -343.53,676.56 96.93,33.15"
            style="fill:#fab81d;fill-opacity:1;fill-rule:nonzero;stroke:none"
            id="path204"/><path
            d="m 2147.35,3294.4 343.53,-676.56 -96.93,-33.15 -343.53,676.56 z"
            style="fill:none;stroke:#040606;stroke-width:5;stroke-linecap:butt;stroke-linejoin:miter;stroke-miterlimit:10;stroke-dasharray:none;stroke-opacity:1"
            id="path206"/><path
            d="m 1987.05,3110.31 287.61,-566.42 -96.93,-33.16 -287.61,566.43 96.93,33.15"
            style="fill:#fab81d;fill-opacity:1;fill-rule:nonzero;stroke:none"
            id="path208"/><path
            d="m 1987.05,3110.31 287.61,-566.42 -96.93,-33.16 -287.61,566.43 z"
            style="fill:none;stroke:#040606;stroke-width:5;stroke-linecap:butt;stroke-linejoin:miter;stroke-miterlimit:10;stroke-dasharray:none;stroke-opacity:1"
            id="path210"/><path
            d="m 1802.78,2973.42 255.65,-503.49 -96.93,-33.16 -255.64,503.49 96.92,33.16"
            style="fill:#3d65b7;fill-opacity:1;fill-rule:nonzero;stroke:none"
            id="path212"/><path
            d="m 1802.78,2973.42 255.65,-503.49 -96.93,-33.16 -255.64,503.49 z"
            style="fill:none;stroke:#040606;stroke-width:5;stroke-linecap:butt;stroke-linejoin:miter;stroke-miterlimit:10;stroke-dasharray:none;stroke-opacity:1"
            id="path214"/><path
            d="m 1725.82,2660.86 131.81,-259.61 -96.92,-33.15 -131.82,259.61 96.93,33.15"
            style="fill:#f2596d;fill-opacity:1;fill-rule:nonzero;stroke:none"
            id="path216"/><path
            d="m 1725.82,2660.86 131.81,-259.61 -96.92,-33.15 -131.82,259.61 z"
            style="fill:none;stroke:#040606;stroke-width:5;stroke-linecap:butt;stroke-linejoin:miter;stroke-miterlimit:10;stroke-dasharray:none;stroke-opacity:1"
            id="path218"/><path
            d="M 2572.14,2644.69 1579.23,2305.07"
            style="fill:none;stroke:#1f2952;stroke-width:7.5;stroke-linecap:butt;stroke-linejoin:miter;stroke-miterlimit:10;stroke-dasharray:none;stroke-opacity:1"
            id="path220"/><path
            d="m 1926.05,3048.13 77.98,-156.12"
            style="fill:none;stroke:#040606;stroke-width:5;stroke-linecap:butt;stroke-linejoin:miter;stroke-miterlimit:10;stroke-dasharray:none;stroke-opacity:1"
            id="path222"/><path
            d="m 2019.84,2870.09 c 9,-21.42 19.48,-42.47 31.35,-62.94"
            style="fill:none;stroke:#040606;stroke-width:5;stroke-linecap:butt;stroke-linejoin:miter;stroke-miterlimit:10;stroke-dasharray:none;stroke-opacity:1"
            id="path224"/><path
            d="m 2167.96,3079.74 c 27.78,-57.8 57.19,-115.08 88.19,-171.75"
            style="fill:none;stroke:#040606;stroke-width:5;stroke-linecap:butt;stroke-linejoin:miter;stroke-miterlimit:10;stroke-dasharray:none;stroke-opacity:1"
            id="path226"/><path
            d="m 2277.38,2866.13 c 13.23,-28.21 26.45,-56.41 39.67,-84.63"
            style="fill:none;stroke:#040606;stroke-width:5;stroke-linecap:butt;stroke-linejoin:miter;stroke-miterlimit:10;stroke-dasharray:none;stroke-opacity:1"
            id="path228"/><path
            d="m 1677.74,2563.26 32.59,-65.24"
            style="fill:none;stroke:#040606;stroke-width:5;stroke-linecap:butt;stroke-linejoin:miter;stroke-miterlimit:10;stroke-dasharray:none;stroke-opacity:1"
            id="path230"/><path
            d="m 1731.17,2461.47 15.3,-30.65"
            style="fill:none;stroke:#040606;stroke-width:5;stroke-linecap:butt;stroke-linejoin:miter;stroke-miterlimit:10;stroke-dasharray:none;stroke-opacity:1"
            id="path232"/><path
            d="m 1855.63,2682.27 48.89,-97.9"
            style="fill:none;stroke:#040606;stroke-width:5;stroke-linecap:butt;stroke-linejoin:miter;stroke-miterlimit:10;stroke-dasharray:none;stroke-opacity:1"
            id="path234"/><path
            d="m 1858.19,2718.45 c 4.65,-9.32 9.31,-18.65 13.97,-27.96"
            style="fill:none;stroke:#040606;stroke-width:5;stroke-linecap:butt;stroke-linejoin:miter;stroke-miterlimit:10;stroke-dasharray:none;stroke-opacity:1"
            id="path236"/><path
            d="m 1821.76,2755.24 c 4.65,-9.32 9.31,-18.64 13.97,-27.96"
            style="fill:none;stroke:#040606;stroke-width:5;stroke-linecap:butt;stroke-linejoin:miter;stroke-miterlimit:10;stroke-dasharray:none;stroke-opacity:1"
            id="path238"/><path
            d="m 2637.26,2441.28 343.53,-676.56 -96.92,-33.16 -343.53,676.56 96.92,33.16"
            style="fill:#fab81d;fill-opacity:1;fill-rule:nonzero;stroke:none"
            id="path240"/><path
            d="m 2637.26,2441.28 343.53,-676.56 -96.92,-33.16 -343.53,676.56 z"
            style="fill:none;stroke:#040606;stroke-width:5;stroke-linecap:butt;stroke-linejoin:miter;stroke-miterlimit:10;stroke-dasharray:none;stroke-opacity:1"
            id="path242"/><path
            d="m 2502.92,2265.63 287.61,-566.42 -96.93,-33.16 -287.61,566.43 96.93,33.15"
            style="fill:#fab81d;fill-opacity:1;fill-rule:nonzero;stroke:none"
            id="path244"/><path
            d="m 2502.92,2265.63 287.61,-566.42 -96.93,-33.16 -287.61,566.43 z"
            style="fill:none;stroke:#040606;stroke-width:5;stroke-linecap:butt;stroke-linejoin:miter;stroke-miterlimit:10;stroke-dasharray:none;stroke-opacity:1"
            id="path246"/><path
            d="m 2347.83,2138.36 255.65,-503.49 -96.92,-33.16 -255.65,503.5 96.92,33.15"
            style="fill:#f2596d;fill-opacity:1;fill-rule:nonzero;stroke:none"
            id="path248"/><path
            d="m 2347.83,2138.36 255.65,-503.49 -96.92,-33.16 -255.65,503.5 z"
            style="fill:none;stroke:#040606;stroke-width:5;stroke-linecap:butt;stroke-linejoin:miter;stroke-miterlimit:10;stroke-dasharray:none;stroke-opacity:1"
            id="path250"/><path
            d="m 2141.67,1948.44 205.88,-400.32 -96.93,-33.15 -205.88,400.31 96.93,33.16"
            style="fill:#fab81d;fill-opacity:1;fill-rule:nonzero;stroke:none"
            id="path252"/><path
            d="m 2141.67,1948.44 205.88,-400.32 -96.93,-33.15 -205.88,400.31 z"
            style="fill:none;stroke:#040606;stroke-width:5;stroke-linecap:butt;stroke-linejoin:miter;stroke-miterlimit:10;stroke-dasharray:none;stroke-opacity:1"
            id="path254"/><path
            d="M 3062.05,1791.56 2069.14,1451.94"
            style="fill:none;stroke:#1f2952;stroke-width:7.5;stroke-linecap:butt;stroke-linejoin:miter;stroke-miterlimit:10;stroke-dasharray:none;stroke-opacity:1"
            id="path256"/><path
            d="m 3077.06,1765.28 -992.9,-339.62"
            style="fill:none;stroke:#1f2952;stroke-width:7.5;stroke-linecap:butt;stroke-linejoin:miter;stroke-miterlimit:10;stroke-dasharray:none;stroke-opacity:1"
            id="path258"/><path
            d="m 2079.65,3786.77 c 18.84,35.33 24.29,79.79 34.93,117.26 1.49,5.24 3.09,10.55 6.17,15.05 2.76,4.04 6.59,7.24 10.39,10.34 12.61,10.35 20.17,23.77 31.77,34.56 18.15,16.88 33.85,34.77 47.3,55.84 4.91,7.7 9.45,17.48 5.23,25.57 -4.34,8.36 -16.27,10.04 -24.84,6.14 -8.56,-3.89 -14.57,-11.72 -20.35,-19.14 -18.97,-24.34 -32.93,-16.76 -26.81,11.54 5.72,26.53 11.45,53.05 17.17,79.59 2.54,11.75 5.09,23.71 4.11,35.7 -0.97,11.98 -6.02,24.22 -15.88,31.09 -14.21,9.89 -35.32,9.26 -46.41,-4.67 -6.11,-7.67 -9.19,-17.25 -12.32,-26.55 -6.66,-19.78 -14.09,-39.32 -22.26,-58.53 -1.13,-2.67 -2.39,-5.48 -4.78,-7.13 -2.39,-1.65 -6.25,-1.52 -7.66,1.02 -0.77,1.39 -0.63,3.1 -0.43,4.68 3.39,26.64 17.3,51.63 17.02,78.5 -3.31,2.28 -8.02,1.43 -11.25,-0.96 -3.24,-2.39 -5.3,-6.01 -7.21,-9.55 -16.14,-30 -27.23,-62.39 -38.26,-94.63 -9.66,-28.24 -19.55,-57.28 -20.28,-87.42 -0.71,-29.56 0.63,-59.33 -4.67,-88.7 -5.94,-32.93 -24.87,-61.59 -26.35,-95.87 -0.27,-6.18 0.06,-12.68 3.19,-18.01 2.45,-4.18 6.39,-7.25 10.4,-9.97 26.41,-18 72,-30.31 93.5,0.23 3.14,4.48 5.99,9.15 8.58,14.02"
            style="fill:#ffffff;fill-opacity:1;fill-rule:nonzero;stroke:none"
            id="path260"/><path
            d="m 2079.65,3786.77 c 18.84,35.33 24.29,79.79 34.93,117.26 1.49,5.24 3.09,10.55 6.17,15.05 2.76,4.04 6.59,7.24 10.39,10.34 12.61,10.35 20.17,23.77 31.77,34.56 18.15,16.88 33.85,34.77 47.3,55.84 4.91,7.7 9.45,17.48 5.23,25.57 -4.34,8.36 -16.27,10.04 -24.84,6.14 -8.56,-3.89 -14.57,-11.72 -20.35,-19.14 -18.97,-24.34 -32.93,-16.76 -26.81,11.54 5.72,26.53 11.45,53.05 17.17,79.59 2.54,11.75 5.09,23.71 4.11,35.7 -0.97,11.98 -6.02,24.22 -15.88,31.09 -14.21,9.89 -35.32,9.26 -46.41,-4.67 -6.11,-7.67 -9.19,-17.25 -12.32,-26.55 -6.66,-19.78 -14.09,-39.32 -22.26,-58.53 -1.13,-2.67 -2.39,-5.48 -4.78,-7.13 -2.39,-1.65 -6.25,-1.52 -7.66,1.02 -0.77,1.39 -0.63,3.1 -0.43,4.68 3.39,26.64 17.3,51.63 17.02,78.5 -3.31,2.28 -8.02,1.43 -11.25,-0.96 -3.24,-2.39 -5.3,-6.01 -7.21,-9.55 -16.14,-30 -27.23,-62.39 -38.26,-94.63 -9.66,-28.24 -19.55,-57.28 -20.28,-87.42 -0.71,-29.56 0.63,-59.33 -4.67,-88.7 -5.94,-32.93 -24.87,-61.59 -26.35,-95.87 -0.27,-6.18 0.06,-12.68 3.19,-18.01 2.45,-4.18 6.39,-7.25 10.4,-9.97 26.41,-18 72,-30.31 93.5,0.23 3.14,4.48 5.99,9.15 8.58,14.02 z"
            style="fill:none;stroke:#171717;stroke-width:5;stroke-linecap:butt;stroke-linejoin:miter;stroke-miterlimit:10;stroke-dasharray:none;stroke-opacity:1"
            id="path262"/><path
            d="m 2562.87,3510.16 c -7.61,3.61 -14.95,7.76 -21.54,13.11 -6.75,5.48 -9.22,13.32 -10.05,21.88 -79.33,15.52 -167.7,2.29 -246.31,-14.01 -45.63,-9.46 -181.34,-25.07 -198.71,-80.43 19.58,62.43 38.62,125.72 45.15,191.09 6.34,63.39 -3.75,127.45 -11.21,190.3 -1.38,11.67 -2.77,23.34 -4.15,35.01 -10.6,1.69 -21.1,3.93 -31.59,6.17 -34.45,7.37 -68.89,14.74 -103.34,22.1 -2.62,0.57 -17.47,-19.23 -19.75,-21.82 -6.93,-7.84 -13.74,-15.79 -20.44,-23.82 -13.83,-16.58 -27.18,-33.55 -40.04,-50.88 -41.95,-56.57 -75.85,-123.77 -97.01,-190.93 -25.33,-80.35 -49.29,-186.42 -36.68,-270.09 6.25,-41.43 23.42,-81.17 49.33,-114.11 73.29,-93.2 228.26,-59.93 330.9,-50.01 75.84,7.32 203.01,-1.28 277.65,14.49 64.16,13.56 67.79,82.96 109.16,133.34 14.48,17.63 27.99,36.84 33.68,58.93 2.83,10.98 3.63,22.28 3.67,33.65 0.03,6.62 -0.21,13.27 -0.44,19.88 -0.68,18.5 -0.4,51.02 -8.28,76.15"
            style="fill:#f2596d;fill-opacity:1;fill-rule:nonzero;stroke:none"
            id="path264"/><g
            id="g266"><g
           id="g268"
           clip-path="url(#clipPath272)"><path
             d="m 3081.04,1564.18 c -6.15,386.47 -1.14,782.16 -46.17,1161.32 -7.88,66.35 -25.05,141.48 -87.71,164.6 -47.71,17.61 -108.28,-3.46 -150.38,-40.49 -42.11,-37.04 -68.79,-87.32 -89.72,-137.35 -123.74,-296.01 -73.41,-630.92 -8.49,-911.68 37.69,-163 55.58,-327.45 65.95,-495.82 13.17,-213.66 100.73,-423.221 168.72,-616.369 48.12,11.089 95.54,27.898 140.84,49.89 4.66,2.27 9.57,4.809 12.49,9.059 3.09,4.519 3.29,9.98 3.38,15.082 3.74,222.828 -4.7,468.588 -7.35,690.108 -0.44,37.15 -0.97,74.36 -1.56,111.65"
             style="fill:#3d65b7;fill-opacity:1;fill-rule:nonzero;stroke:none"
             id="path274" /><path
            d="m 2084.05,987.059 c -13.88,197.821 5.86,396.711 63.38,595.041 51.3,176.84 56.79,387.51 50.44,570.53 -2.57,74.11 -8.89,149.09 5.44,221.85 14.13,71.79 47.77,138.15 83.99,201.71 32.59,57.18 71.98,110.28 104.79,167.08 18,31.14 24.4,98.96 43.56,122.3 42.46,51.72 207.73,38.74 261.83,2.63 35.4,-23.62 104.02,-104.17 104.4,-146.7 0.29,-32.13 -12.74,-64.42 -25.08,-95.82 -116.71,-296.91 -177.42,-596.34 -243.71,-899.78 -44.29,-202.74 -88.48,-405.49 -132.67,-608.24 -22.66,-103.97 -44.57,-208.031 -67.98,-311.93 -15.24,-67.621 -5.59,-61.191 -64.42,-81.769 -11.18,-3.922 -140.17,-19.371 -140.76,-17 -22.13,91.148 -36.53,184.898 -43.21,280.098"
            style="fill:#3d65b7;fill-opacity:1;fill-rule:nonzero;stroke:none"
            id="path276"/></g></g><path
            d="m 2519.78,2786.66 c 171.85,-4.31 343.87,-1.58 515.5,8.15 9.5,0.55 41.57,281.8 45.68,309.02 14.92,98.63 11.44,193.2 9.02,293.01 -1.77,73.13 -39.65,128.37 -108.8,155.95 -30.45,12.15 -67.38,1.75 -99.9,-2.9 -13.92,-1.98 -30.55,13.59 -44.97,12.23 -18.2,-1.7 -36.36,-3.7 -54.35,-6.61 -37.46,-6.07 -75.43,-11.35 -113.85,-7.9 -3.9,0.35 -34.84,6.43 -38.86,6.75 -47.42,3.71 -156.66,-18.11 -196.58,-45.23 -85.06,-57.81 -50.01,-219.45 -49.03,-307.82 1.5,-137.06 8.03,-274.07 19.56,-410.66 38.84,-1.69 77.71,-3.02 116.58,-3.99"
            style="fill:#f2596d;fill-opacity:1;fill-rule:nonzero;stroke:none"
            id="path278"/><path
            d="m 2895.21,3799.26 c -5.11,-6.32 -11.26,-11.68 -18.72,-15.68 -15.02,-8.04 -17.98,-16.79 -19.13,-33.57 -2.75,-40.24 1.42,-79.23 4.1,-119.25 0.91,-13.59 3.8,-25.78 10.46,-37.88 6.73,-12.24 18.85,-20.94 32.06,-25.5 13.21,-4.57 27.46,-5.3 41.4,-4.38 8.71,0.56 17.42,1.77 26.15,1.39 -2.28,-44.88 -56.93,-68.73 -92.56,-83.82 -43.85,-18.59 -91.82,-27.53 -139.42,-25.37 -76.79,3.47 -151.94,35.83 -207.26,89.21 75.61,10.14 145.14,64.73 138.45,158.82 -5.47,76.97 -32.27,184.88 2.15,257.73 48.69,103.06 220.13,138.14 246.73,0.1 5.64,-29.24 3.47,-59.41 -0.04,-88.99 -3.03,-25.54 -8.84,-53.6 -24.37,-72.81"
            style="fill:#ffffff;fill-opacity:1;fill-rule:nonzero;stroke:none"
            id="path280"/><path
            d="m 2895.21,3799.26 c -5.11,-6.32 -11.26,-11.68 -18.72,-15.68 -15.02,-8.04 -17.98,-16.79 -19.13,-33.57 -2.75,-40.24 1.42,-79.23 4.1,-119.25 0.91,-13.59 3.8,-25.78 10.46,-37.88 6.73,-12.24 18.85,-20.94 32.06,-25.5 13.21,-4.57 27.46,-5.3 41.4,-4.38 8.71,0.56 17.42,1.77 26.15,1.39 -2.28,-44.88 -56.93,-68.73 -92.56,-83.82 -43.85,-18.59 -91.82,-27.53 -139.42,-25.37 -76.79,3.47 -151.94,35.83 -207.26,89.21 75.61,10.14 145.14,64.73 138.45,158.82 -5.47,76.97 -32.27,184.88 2.15,257.73 48.69,103.06 220.13,138.14 246.73,0.1 5.64,-29.24 3.47,-59.41 -0.04,-88.99 -3.03,-25.54 -8.84,-53.6 -24.37,-72.81 z"
            style="fill:none;stroke:#171717;stroke-width:5;stroke-linecap:butt;stroke-linejoin:miter;stroke-miterlimit:10;stroke-dasharray:none;stroke-opacity:1"
            id="path282"/><path
            d="m 2721.25,3893.29 c 0.66,11.22 -0.69,33.97 14.05,33.18 2.49,-0.13 4.16,-2.48 5.81,-4.34 8.42,-9.54 25.65,-9 33.44,1.07 9.32,12.04 5.66,32.84 18.84,40.44 3.72,2.15 8.12,2.7 12.38,3.22 18.34,2.26 31.8,8.28 48.55,14.6 27.16,10.27 56.39,-1.75 78.93,23.25 16.22,17.97 15,51.34 -6.37,62.74 -15.93,8.51 -35.42,2.66 -53.42,4.15 -15.76,1.31 -30.38,8.32 -45.09,14.16 -46.33,18.38 -96.9,25.72 -146.61,22.05 -16.24,-1.2 -32.77,-3.66 -47.21,-11.2 -14.62,-7.63 -27.93,-23.31 -34.07,-38.73 -6.55,-16.43 -1.88,-36.79 -16.95,-49.48 -9.71,-8.19 -23.67,-8.61 -35.13,-14.08 -23.41,-11.19 -31.54,-40.36 -33.23,-66.25 -0.74,-11.49 -1.07,-23.96 -8.33,-32.89 -6.41,-7.89 -16.74,-11.14 -25.8,-15.76 -10.86,-5.52 -20.47,-13.51 -27.89,-23.18 -6.3,-8.22 -11.17,-18.4 -9.68,-28.65 1.09,-7.41 5.34,-13.93 9.49,-20.17 8.23,-12.39 17.34,-25.51 31.23,-30.84 13.72,-5.26 29.4,-1.81 43.51,-5.91 26.26,-7.61 39.38,-38.27 64.19,-49.78 18.63,-8.64 38.26,-5.6 56.35,1.99 5.2,2.18 10.86,4.41 16.33,3.03 9.53,-2.41 13.96,-14.48 23.36,-17.34 9.11,-2.76 18.71,4.97 21.55,14.05 2.83,9.09 0.77,18.88 -1.29,28.18 -5.25,23.57 -13.66,52.49 -8.49,76.75 4.53,21.32 17.33,41.07 21.18,62.16 0.18,0.96 0.29,2.18 0.37,3.58"
            style="fill:#161f39;fill-opacity:1;fill-rule:nonzero;stroke:none"
            id="path284"/><path
            d="m 2406.71,2017.29 c -0.02,1.85 -0.04,3.7 -0.05,5.54"
            style="fill:#e49885;fill-opacity:1;fill-rule:nonzero;stroke:none"
            id="path286"/><path
            d="m 2817.47,3772.71 c 4.17,-0.05 8.34,-0.01 12.51,0.11 12.18,0.37 24.33,1.49 36.36,3.34 -1.22,-0.18 -3.19,-4.26 -3.72,-5.25 -1.03,-1.95 -1.5,-3.7 -1.88,-5.79 -0.9,-5.05 -1.79,-9.91 -2.15,-15.04 -0.96,-13.51 -1.61,-27.03 -1.98,-40.57 -3.43,6.19 -6.79,11.97 -11.13,17.63 -4.8,6.24 -9.93,12.23 -15.37,17.95 -10.44,10.94 -21.86,21.61 -35.3,28.86 2.48,0.13 5.24,-0.55 7.77,-0.71 3.04,-0.18 6.08,-0.32 9.13,-0.42 1.92,-0.06 3.84,-0.1 5.76,-0.11"
            style="fill:#161f39;fill-opacity:1;fill-rule:nonzero;stroke:none"
            id="path288"/><path
            d="m 2753.02,3911.77 c -4.93,20.64 -27.91,32.76 -48.39,27.57 -25.67,-6.53 -40.45,-35.93 -39.46,-60.88 0.27,-6.67 1.42,-13.43 4.45,-19.39 7.41,-14.6 24.84,-21.71 41.21,-22.11"
            style="fill:#ffffff;fill-opacity:1;fill-rule:nonzero;stroke:none"
            id="path290"/><path
            d="m 2753.02,3911.77 c -4.93,20.64 -27.91,32.76 -48.39,27.57 -25.67,-6.53 -40.45,-35.93 -39.46,-60.88 0.27,-6.67 1.42,-13.43 4.45,-19.39 7.41,-14.6 24.84,-21.71 41.21,-22.11"
            style="fill:none;stroke:#171717;stroke-width:5;stroke-linecap:butt;stroke-linejoin:miter;stroke-miterlimit:10;stroke-dasharray:none;stroke-opacity:1"
            id="path292"/><path
            d="m 2373.36,1509.56 5.48,5.96 c -29.48,27.19 -49.4,64.5 -56.1,105.08 l -8,-1.33 c 7,-42.35 27.81,-81.31 58.62,-109.71"
            style="fill:#161f39;fill-opacity:1;fill-rule:nonzero;stroke:none"
            id="path294"/><path
            d="m 2941.69,1560.74 c 15.44,22.07 27.35,45.83 35.39,70.63 l -7.7,2.51 c -7.8,-24.04 -19.35,-47.08 -34.34,-68.5 l 6.65,-4.64"
            style="fill:#161f39;fill-opacity:1;fill-rule:nonzero;stroke:none"
            id="path296"/><path
            d="m 2635.15,2167.18 c 31.68,95.37 62.46,192.61 91.45,288.99 l -6.24,1.89 c -28.98,-96.34 -59.73,-193.52 -91.38,-288.82 l 6.17,-2.06"
            style="fill:#161f39;fill-opacity:1;fill-rule:nonzero;stroke:none"
            id="path298"/><path
            d="m 2826.04,3852.42 c 10.46,-9.69 24.97,-14.85 39.2,-13.95 14.23,0.89 27.98,7.83 37.15,18.74"
            style="fill:#ffffff;fill-opacity:1;fill-rule:nonzero;stroke:none"
            id="path300"/><path
            d="m 2826.04,3852.42 c 10.46,-9.69 24.97,-14.85 39.2,-13.95 14.23,0.89 27.98,7.83 37.15,18.74"
            style="fill:none;stroke:#171717;stroke-width:5;stroke-linecap:butt;stroke-linejoin:miter;stroke-miterlimit:10;stroke-dasharray:none;stroke-opacity:1"
            id="path302"/><path
            d="m 2697.66,3903.18 c 7.84,5.36 18.92,6.15 26.82,0.89 7.9,-5.25 11.36,-16.75 6.67,-25"
            style="fill:#ffffff;fill-opacity:1;fill-rule:nonzero;stroke:none"
            id="path304"/><path
            d="m 2697.66,3903.18 c 7.84,5.36 18.92,6.15 26.82,0.89 7.9,-5.25 11.36,-16.75 6.67,-25"
            style="fill:none;stroke:#171717;stroke-width:5;stroke-linecap:butt;stroke-linejoin:miter;stroke-miterlimit:10;stroke-dasharray:none;stroke-opacity:1"
            id="path306"/><path
            d="m 2148,4189.4 c -6.44,-43.62 -17.81,-86.51 -33.82,-127.59"
            style="fill:#ffffff;fill-opacity:1;fill-rule:nonzero;stroke:none"
            id="path308"/><path
            d="m 2148,4189.4 c -6.44,-43.62 -17.81,-86.51 -33.82,-127.59"
            style="fill:none;stroke:#171717;stroke-width:5;stroke-linecap:butt;stroke-linejoin:miter;stroke-miterlimit:10;stroke-dasharray:none;stroke-opacity:1"
            id="path310"/><path
            d="m 2127.23,4195 c -11.05,-42.2 -24.56,-83.76 -40.44,-124.39"
            style="fill:#ffffff;fill-opacity:1;fill-rule:nonzero;stroke:none"
            id="path312"/><path
            d="m 2127.23,4195 c -11.05,-42.2 -24.56,-83.76 -40.44,-124.39"
            style="fill:none;stroke:#171717;stroke-width:5;stroke-linecap:butt;stroke-linejoin:miter;stroke-miterlimit:10;stroke-dasharray:none;stroke-opacity:1"
            id="path314"/><path
            d="m 3156.37,3231.84 c -4.08,-57.45 -5.21,-115.09 -3.39,-172.65"
            style="fill:none;stroke:#171717;stroke-width:5;stroke-linecap:butt;stroke-linejoin:miter;stroke-miterlimit:10;stroke-dasharray:none;stroke-opacity:1"
            id="path316"/><path
            d="m 3054.67,2922.46 c -1.93,127.61 -12.67,255.07 -32.11,381.19"
            style="fill:none;stroke:#171717;stroke-width:5;stroke-linecap:butt;stroke-linejoin:miter;stroke-miterlimit:10;stroke-dasharray:none;stroke-opacity:1"
            id="path318"/><path
            d="m 3145.12,4422.73 c -17.4,-5.26 -30.18,-29.81 -30.18,-29.81 0,0 -12.88,24.35 -30.29,29.3 -50.42,14.35 -72.95,-31.12 -53.65,-73.09 18.62,-40.48 84.23,-89.19 84.23,-89.19 0,0 65.4,49.79 83.85,90.6 19.12,42.28 -3.61,87.38 -53.96,72.19"
            style="fill:#fbceca;fill-opacity:1;fill-rule:nonzero;stroke:none"
            id="path320"/><path
            d="m 4226.16,3454.37 c -9.57,-2.9 -16.6,-16.4 -16.6,-16.4 0,0 -7.09,13.39 -16.67,16.11 -27.73,7.9 -40.12,-17.12 -29.51,-40.19 10.25,-22.28 46.33,-49.07 46.33,-49.07 0,0 35.98,27.4 46.13,49.84 10.52,23.26 -1.99,48.06 -29.68,39.71"
            style="fill:#fbceca;fill-opacity:1;fill-rule:nonzero;stroke:none"
            id="path322"/><path
            d="m 3796.82,1693.09 c -14.69,-4.44 -25.48,-25.18 -25.48,-25.18 0,0 -10.88,20.57 -25.59,24.76 -42.58,12.12 -61.62,-26.29 -45.31,-61.74 15.73,-34.19 71.15,-75.33 71.15,-75.33 0,0 55.23,42.06 70.81,76.52 16.15,35.71 -3.05,73.8 -45.58,60.97"
            style="fill:#fbceca;fill-opacity:1;fill-rule:nonzero;stroke:none"
            id="path324"/><path
            d="m 2892.58,4488.25 c -12.02,-3.63 -20.85,-20.61 -20.85,-20.61 0,0 -8.9,16.83 -20.94,20.26 -34.85,9.92 -50.42,-21.51 -37.08,-50.52 12.87,-27.98 58.22,-61.64 58.22,-61.64 0,0 45.2,34.42 57.95,62.62 13.21,29.23 -2.49,60.39 -37.3,49.89"
            style="fill:#fbceca;fill-opacity:1;fill-rule:nonzero;stroke:none"
            id="path326"/><path
            d="M 4538.13,1960.91 H 3474.44 v 654.42 h 1063.69 v -654.42"
            style="fill:#040606;fill-opacity:1;fill-rule:nonzero;stroke:none"
            id="path328"/><path
            d="M 4514.78,1986.74 H 3451.09 v 654.42 h 1063.69 v -654.42"
            style="fill:#fbceca;fill-opacity:1;fill-rule:nonzero;stroke:none"
            id="path330"/><path
            d="M 3925.83,2374.01 V 2253 c 0,-7.42 8.2,-11.92 14.46,-7.93 l 90.66,57.76 c 5.66,3.61 5.83,11.8 0.33,15.64 l -90.67,63.25 c -6.23,4.34 -14.78,-0.11 -14.78,-7.71"
            style="fill:#f1495c;fill-opacity:1;fill-rule:nonzero;stroke:none"
            id="path332"/><path
            d="m 3514.91,2090.58 h 952"
            style="fill:none;stroke:#171717;stroke-width:5;stroke-linecap:butt;stroke-linejoin:miter;stroke-miterlimit:10;stroke-dasharray:none;stroke-opacity:1"
            id="path334"/><path
            d="m 3626.59,2090.58 c 0,-17.63 -14.28,-31.92 -31.9,-31.92 -17.63,0 -31.92,14.29 -31.92,31.92 0,17.61 14.29,31.9 31.92,31.9 17.62,0 31.9,-14.29 31.9,-31.9"
            style="fill:#171717;fill-opacity:1;fill-rule:nonzero;stroke:none"
            id="path336"/><path
            d="m 4071.61,628.859 h -608.67 v 383.081 h 608.67 V 628.859"
            style="fill:#040606;fill-opacity:1;fill-rule:nonzero;stroke:none"
            id="path338"/><path
            d="m 4001.83,684.43 h -608.67 v 383.09 h 608.67 V 684.43"
            style="fill:#fab81d;fill-opacity:1;fill-rule:nonzero;stroke:none"
            id="path340"/><path
            d="m 4001.83,1067.52 c 0,0 -282.13,-173.418 -304.33,-191.54 l -304.34,191.54"
            style="fill:none;stroke:#040606;stroke-width:5;stroke-linecap:butt;stroke-linejoin:miter;stroke-miterlimit:10;stroke-dasharray:none;stroke-opacity:1"
            id="path342"/><path
            d="m 3974.49,830.199 c 2.72,-32.117 2.81,-64.469 0.27,-96.617"
            style="fill:none;stroke:#040606;stroke-width:5;stroke-linecap:butt;stroke-linejoin:miter;stroke-miterlimit:10;stroke-dasharray:none;stroke-opacity:1"
            id="path344"/><path
            d="m 3973.48,849.281 c 0.45,11.86 0.89,23.731 1.34,35.59"
            style="fill:none;stroke:#040606;stroke-width:5;stroke-linecap:butt;stroke-linejoin:miter;stroke-miterlimit:10;stroke-dasharray:none;stroke-opacity:1"
            id="path346"/><path
            d="m 3956.84,856.91 c 0,-8.469 0,-16.949 0,-25.43"
            style="fill:none;stroke:#040606;stroke-width:5;stroke-linecap:butt;stroke-linejoin:miter;stroke-miterlimit:10;stroke-dasharray:none;stroke-opacity:1"
            id="path348"/><path
            d="m 3707.67,906.488 c 0,0 42.84,27.051 57.21,36.871"
            style="fill:none;stroke:#040606;stroke-width:5;stroke-linecap:butt;stroke-linejoin:miter;stroke-miterlimit:10;stroke-dasharray:none;stroke-opacity:1"
            id="path350"/><path
            d="m 3782.45,956.359 c 6.03,4.7 12.52,8.852 19.34,12.332"
            style="fill:none;stroke:#040606;stroke-width:5;stroke-linecap:butt;stroke-linejoin:miter;stroke-miterlimit:10;stroke-dasharray:none;stroke-opacity:1"
            id="path352"/><path
            d="m 2428.69,3147.88 c -0.04,-71.54 4.77,-143.08 14.4,-213.96"
            style="fill:none;stroke:#040606;stroke-width:5;stroke-linecap:butt;stroke-linejoin:miter;stroke-miterlimit:10;stroke-dasharray:none;stroke-opacity:1"
            id="path354"/><path
            d="m 2454.21,2900.11 c 0,-16.9 0,-33.79 0,-50.69"
            style="fill:none;stroke:#040606;stroke-width:5;stroke-linecap:butt;stroke-linejoin:miter;stroke-miterlimit:10;stroke-dasharray:none;stroke-opacity:1"
            id="path356"/><path
            d="m 2378.11,3176.14 c 19.4,11.94 37.42,26.09 53.61,42.09"
            style="fill:none;stroke:#040606;stroke-width:5;stroke-linecap:butt;stroke-linejoin:miter;stroke-miterlimit:10;stroke-dasharray:none;stroke-opacity:1"
            id="path358"/><path
            d="m 2094,3465.93 c -9.48,-16.26 -20.91,-31.39 -33.97,-44.95"
            style="fill:none;stroke:#040606;stroke-width:5;stroke-linecap:butt;stroke-linejoin:miter;stroke-miterlimit:10;stroke-dasharray:none;stroke-opacity:1"
            id="path360"/><path
            d="m 1817.84,3330.88 c 7.49,-21.92 22.66,-41.14 42.24,-53.54"
            style="fill:none;stroke:#040606;stroke-width:5;stroke-linecap:butt;stroke-linejoin:miter;stroke-miterlimit:10;stroke-dasharray:none;stroke-opacity:1"
            id="path362"/><path
            d="m 2690.42,3678.12 c -1.28,-25.87 -7.72,-51.48 -18.84,-74.88"
            style="fill:none;stroke:#040606;stroke-width:5;stroke-linecap:butt;stroke-linejoin:miter;stroke-miterlimit:10;stroke-dasharray:none;stroke-opacity:1"
            id="path364"/><path
            d="m 2663.49,3588.06 c -2.44,-5.88 -5.97,-11.31 -10.34,-15.94"
            style="fill:none;stroke:#040606;stroke-width:5;stroke-linecap:butt;stroke-linejoin:miter;stroke-miterlimit:10;stroke-dasharray:none;stroke-opacity:1"
            id="path366"/><path
            d="m 2814.57,3770.33 c -16.45,-2.41 -33.89,3.37 -45.66,15.12"
            style="fill:none;stroke:#040606;stroke-width:5;stroke-linecap:butt;stroke-linejoin:miter;stroke-miterlimit:10;stroke-dasharray:none;stroke-opacity:1"
            id="path368"/><path
            d="m 2980.28,3565.52 c -6.17,1.1 -12.6,1.04 -18.84,1.89 -42.68,-55.73 -113.11,-84.15 -182.55,-87.21 -45.33,-2.01 -90.36,5.19 -133.92,17.38 -20.77,5.81 -41.76,12.22 -60.75,22.63 -14.83,8.13 -27.01,19.06 -38.57,30.95 -6.79,-1.36 -13.54,-2.96 -20.45,-3.75 -5.06,-0.57 -10.04,-0.43 -14.91,0.3 0.57,-2.25 1.68,-4.49 3.59,-6.56 25.52,-27.73 52.07,-48.09 87.64,-61.23 36.87,-13.62 75.86,-22.42 114.83,-27.13 70.59,-8.52 144.56,1.52 205.72,39.48 29.03,18 53.98,41.74 72.68,70.26 -4.84,0.98 -9.65,2.13 -14.47,2.99"
            style="fill:#161f39;fill-opacity:1;fill-rule:nonzero;stroke:none"
            id="path370"/><path
            d="m 2514.1,2829.09 c -37.97,0.17 -75.94,0.65 -113.92,1.28 1.03,-6.65 1.44,-13.39 1.19,-20.05 177.01,-2.87 354.1,-0.8 530.99,6.44 36.91,1.51 73.81,3.33 110.7,5.28 0.25,3.81 0.69,7.62 1.26,11.36 0.45,2.94 1.06,5.89 1.82,8.79 -177.18,-9.41 -354.61,-13.85 -532.04,-13.1"
            style="fill:#161f39;fill-opacity:1;fill-rule:nonzero;stroke:none"
            id="path372"/></g></g></svg>
